<svg xmlns="http://www.w3.org/2000/svg" version="1.1" xmlns:xlink="http://www.w3.org/1999/xlink" width="42" height="42" x="0" y="0" viewBox="0 0 682.667 682.667" style="enable-background:new 0 0 512 512" xml:space="preserve" class=""><g><defs><clipPath id="a" clipPathUnits="userSpaceOnUse"><path d="M0 512h512V0H0Z" fill="#223d5b" opacity="1" data-original="#000000"></path></clipPath></defs><g clip-path="url(#a)" transform="matrix(1.33333 0 0 -1.33333 0 682.667)"><path d="M0 0a39.939 39.939 0 0 1 2.36 13.568v292h-492v-292c0-22.091 17.909-40 40-40h90" style="stroke-linecap: round; stroke-linejoin: round; stroke-miterlimit: 10; stroke-dasharray: none; stroke-opacity: 1;" transform="translate(499.64 100.432)" fill="none" stroke="#223D5B" stroke-width="20px" stroke-linecap="round" stroke-linejoin="round" stroke-miterlimit="10" stroke-dasharray="none" stroke-opacity="" data-original="#000000" opacity="1"></path><path d="M0 0h172.099" style="stroke-linecap: round; stroke-linejoin: round; stroke-miterlimit: 10; stroke-dasharray: none; stroke-opacity: 1;" transform="translate(254.929 74)" fill="none" stroke="#223D5B" stroke-width="20px" stroke-linecap="round" stroke-linejoin="round" stroke-miterlimit="10" stroke-dasharray="none" stroke-opacity="" data-original="#000000" opacity="1"></path><path d="M0 0v56c0 22.091 17.909 40 40 40h412c22.091 0 40-17.909 40-40V0M0 0h492" style="stroke-linecap: round; stroke-linejoin: round; stroke-miterlimit: 10; stroke-dasharray: none; stroke-opacity: 1;" transform="translate(10 406)" fill="none" stroke="#223D5B" stroke-width="20px" stroke-linecap="round" stroke-linejoin="round" stroke-miterlimit="10" stroke-dasharray="none" stroke-opacity="" data-original="#000000" opacity="1"></path><path d="M0 0v0" style="stroke-linecap: round; stroke-linejoin: round; stroke-miterlimit: 10; stroke-dasharray: none; stroke-opacity: 1;" transform="translate(64 449.667)" fill="none" stroke="#223D5B" stroke-width="20px" stroke-linecap="round" stroke-linejoin="round" stroke-miterlimit="10" stroke-dasharray="none" stroke-opacity="" data-original="#000000" opacity="1"></path><path d="M0 0v0" style="stroke-linecap: round; stroke-linejoin: round; stroke-miterlimit: 10; stroke-dasharray: none; stroke-opacity: 1;" transform="translate(108.333 449.667)" fill="none" stroke="#223D5B" stroke-width="20px" stroke-linecap="round" stroke-linejoin="round" stroke-miterlimit="10" stroke-dasharray="none" stroke-opacity="" data-original="#000000" opacity="1"></path><path d="M0 0v0" style="stroke-linecap: round; stroke-linejoin: round; stroke-miterlimit: 10; stroke-dasharray: none; stroke-opacity: 1;" transform="translate(152.667 449.667)" fill="none" stroke="#223D5B" stroke-width="20px" stroke-linecap="round" stroke-linejoin="round" stroke-miterlimit="10" stroke-dasharray="none" stroke-opacity="" data-original="#000000" opacity="1"></path><path d="M0 0h-83.047v19.833C-83.047 44.226-63.273 64-38.88 64h167.762c24.392 0 44.166-19.774 44.166-44.167V0H90" style="stroke-linecap: round; stroke-linejoin: round; stroke-miterlimit: 10; stroke-dasharray: none; stroke-opacity: 1;" transform="translate(153.214 10)" fill="none" stroke="#223D5B" stroke-width="20px" stroke-linecap="round" stroke-linejoin="round" stroke-miterlimit="10" stroke-dasharray="none" stroke-opacity="" data-original="#000000" opacity="1"></path><path d="M0 0h-113.429c-13.255 0-24 10.745-24 24v0c0 13.255 10.745 24 24 24H0c13.255 0 24-10.745 24-24v0C24 10.745 13.255 0 0 0Z" style="stroke-linecap: round; stroke-linejoin: round; stroke-miterlimit: 10; stroke-dasharray: none; stroke-opacity: 1;" transform="translate(254.929 74)" fill="none" stroke="#223D5B" stroke-width="20px" stroke-linecap="round" stroke-linejoin="round" stroke-miterlimit="10" stroke-dasharray="none" stroke-opacity="" data-original="#000000" opacity="1"></path><path d="m0 0-56.569 56.569-84.852-84.853 56.568-56.569z" style="stroke-linecap: round; stroke-linejoin: round; stroke-miterlimit: 10; stroke-dasharray: none; stroke-opacity: 1;" transform="translate(370.696 258.39)" fill="none" stroke="#223D5B" stroke-width="20px" stroke-linecap="round" stroke-linejoin="round" stroke-miterlimit="10" stroke-dasharray="none" stroke-opacity="" data-original="#000000" opacity="1"></path><path d="m0 0-48.083 48.083c-8.592 8.592-22.521 8.592-31.113 0v0c-8.592-8.591-8.592-22.521 0-31.112l48.083-48.084c8.592-8.591 22.521-8.591 31.113 0v0C8.592-22.521 8.592-8.592 0 0Z" style="stroke-linecap: round; stroke-linejoin: round; stroke-miterlimit: 10; stroke-dasharray: none; stroke-opacity: 1;" transform="translate(281.6 177.78)" fill="none" stroke="#223D5B" stroke-width="20px" stroke-linecap="round" stroke-linejoin="round" stroke-miterlimit="10" stroke-dasharray="none" stroke-opacity="" data-original="#000000" opacity="1"></path><path d="m0 0-48.083 48.083c-8.592 8.592-22.521 8.592-31.113 0v0c-8.592-8.591-8.592-22.521 0-31.112l48.083-48.084c8.592-8.591 22.521-8.591 31.113 0v0C8.592-22.521 8.592-8.592 0 0Z" style="stroke-linecap: round; stroke-linejoin: round; stroke-miterlimit: 10; stroke-dasharray: none; stroke-opacity: 1;" transform="translate(397.566 293.746)" fill="none" stroke="#223D5B" stroke-width="20px" stroke-linecap="round" stroke-linejoin="round" stroke-miterlimit="10" stroke-dasharray="none" stroke-opacity="" data-original="#000000" opacity="1"></path><path d="M0 0v0c-15.454-15.454-40.818-14.395-54.929 2.294l-119.393 141.201 30.827 30.827L-2.294 54.929C14.395 40.818 15.454 15.454 0 0Z" style="stroke-linecap: round; stroke-linejoin: round; stroke-miterlimit: 10; stroke-dasharray: none; stroke-opacity: 1;" transform="translate(491.06 60.94)" fill="none" stroke="#223D5B" stroke-width="20px" stroke-linecap="round" stroke-linejoin="round" stroke-miterlimit="10" stroke-dasharray="none" stroke-opacity="" data-original="#000000" opacity="1"></path><path d="m0 0 31.667 31.667" style="stroke-linecap: round; stroke-linejoin: round; stroke-miterlimit: 10; stroke-dasharray: none; stroke-opacity: 1;" transform="translate(351 169)" fill="none" stroke="#223D5B" stroke-width="20px" stroke-linecap="round" stroke-linejoin="round" stroke-miterlimit="10" stroke-dasharray="none" stroke-opacity="" data-original="#000000" opacity="1"></path><path d="M0 0v35.994" style="stroke-linecap: round; stroke-linejoin: round; stroke-miterlimit: 10; stroke-dasharray: none; stroke-opacity: 1;" transform="translate(143.667 232.308)" fill="none" stroke="#223D5B" stroke-width="20px" stroke-linecap="round" stroke-linejoin="round" stroke-miterlimit="10" stroke-dasharray="none" stroke-opacity="" data-original="#000000" opacity="1"></path><path d="m0 0-34.259 34.259" style="stroke-linecap: round; stroke-linejoin: round; stroke-miterlimit: 10; stroke-dasharray: none; stroke-opacity: 1;" transform="translate(104.878 210.443)" fill="none" stroke="#223D5B" stroke-width="20px" stroke-linecap="round" stroke-linejoin="round" stroke-miterlimit="10" stroke-dasharray="none" stroke-opacity="" data-original="#000000" opacity="1"></path><path d="M0 0h-36.346" style="stroke-linecap: round; stroke-linejoin: round; stroke-miterlimit: 10; stroke-dasharray: none; stroke-opacity: 1;" transform="translate(91.846 167.11)" fill="none" stroke="#223D5B" stroke-width="20px" stroke-linecap="round" stroke-linejoin="round" stroke-miterlimit="10" stroke-dasharray="none" stroke-opacity="" data-original="#000000" opacity="1"></path><path d="M0 0v0" style="stroke-linecap: round; stroke-linejoin: round; stroke-miterlimit: 10; stroke-dasharray: none; stroke-opacity: 1;" transform="translate(198.214 10)" fill="none" stroke="#223D5B" stroke-width="20px" stroke-linecap="round" stroke-linejoin="round" stroke-miterlimit="10" stroke-dasharray="none" stroke-opacity="" data-original="#000000" opacity="1"></path></g></g></svg>