<svg xmlns="http://www.w3.org/2000/svg" version="1.1" xmlns:xlink="http://www.w3.org/1999/xlink" width="32" height="32" x="0" y="0" viewBox="0 0 682.667 682.667" style="enable-background:new 0 0 512 512" xml:space="preserve"><g><defs><clipPath id="a" clipPathUnits="userSpaceOnUse"><path d="M0 512h512V0H0Z" fill="#223d5b" opacity="1" data-original="#000000"></path></clipPath></defs><g clip-path="url(#a)" transform="matrix(1.33333 0 0 -1.33333 0 682.667)"><path d="M0 0c3.91-3.9 3.91-10.23 0-14.14-3.9-3.9-10.23-3.9-14.14 0-3.9 3.91-3.9 10.24 0 14.14C-10.23 3.91-3.9 3.91 0 0" style="fill-opacity:1;fill-rule:nonzero;stroke:none" transform="translate(234.82 360.92)" fill="#223D5B" data-original="#000000" opacity="1"></path><path d="M0 0c11.72-11.72 11.72-30.71 0-42.43-11.71-11.71-30.71-11.71-42.42 0l-70.71 70.71c-11.72 11.72-11.72 30.71 0 42.43 5.85 5.86 13.53 8.79 21.21 8.79 7.68 0 15.36-2.93 21.21-8.79" style="stroke-linecap: round; stroke-linejoin: round; stroke-miterlimit: 10; stroke-dasharray: none; stroke-opacity: 1;" transform="translate(234.82 261.93)" fill="none" stroke="#223D5B" stroke-width="20px" stroke-linecap="round" stroke-linejoin="round" stroke-miterlimit="10" stroke-dasharray="none" stroke-opacity="" data-original="#000000" opacity="1"></path><path d="M0 0c-11.56 11.73-11.5 30.61.16 42.26 5.85 5.86 13.53 8.79 21.21 8.79 7.68 0 15.36-2.93 21.21-8.79l70.71-70.71c11.72-11.72 11.72-30.71 0-42.43-11.7-11.7-30.69-11.71-42.4-.01" style="stroke-linecap: round; stroke-linejoin: round; stroke-miterlimit: 10; stroke-dasharray: none; stroke-opacity: 1;" transform="translate(262.95 431.8)" fill="none" stroke="#223D5B" stroke-width="20px" stroke-linecap="round" stroke-linejoin="round" stroke-miterlimit="10" stroke-dasharray="none" stroke-opacity="" data-original="#000000" opacity="1"></path><path d="m0 0-35.36-35.35-7.07 7.07-70.71 70.71-7.07 7.07 99 99 6.91-6.91 21.37-21.38L56.59 70.7l7.05-7.06L28.4 28.4" style="stroke-linecap: round; stroke-linejoin: round; stroke-miterlimit: 10; stroke-dasharray: none; stroke-opacity: 1;" transform="translate(277.25 290.21)" fill="none" stroke="#223D5B" stroke-width="20px" stroke-linecap="round" stroke-linejoin="round" stroke-miterlimit="10" stroke-dasharray="none" stroke-opacity="" data-original="#000000" opacity="1"></path><path d="m0 0 .05-.04 155.89-128.53c15.63-15.62 15.63-40.94 0-56.56-15.62-15.63-40.94-15.63-56.56 0L-29.57-29.65" style="stroke-linecap: round; stroke-linejoin: round; stroke-miterlimit: 10; stroke-dasharray: none; stroke-opacity: 1;" transform="translate(334.34 290.85)" fill="none" stroke="#223D5B" stroke-width="20px" stroke-linecap="round" stroke-linejoin="round" stroke-miterlimit="10" stroke-dasharray="none" stroke-opacity="" data-original="#000000" opacity="1"></path><path d="M0 0c-.18-.21-.37-.4-.57-.6l-28.29-28.28c-.25-.25-.51-.49-.77-.72-7.85-7.08-19.95-6.84-27.51.72A19.92 19.92 0 0 0-63-14.74c0 5.12 1.95 10.23 5.86 14.14l28.28 28.29c.04.04.08.08.12.11 7.82 7.7 20.4 7.66 28.17-.11 3.9-3.9 5.86-9.02 5.86-14.14C5.29 8.69 3.52 3.82 0 0Z" style="stroke-linecap: round; stroke-linejoin: round; stroke-miterlimit: 10; stroke-dasharray: none; stroke-opacity: 1;" transform="translate(334.39 290.81)" fill="none" stroke="#223D5B" stroke-width="20px" stroke-linecap="round" stroke-linejoin="round" stroke-miterlimit="10" stroke-dasharray="none" stroke-opacity="" data-original="#000000" opacity="1"></path><path d="M0 0c11.04 0 20-8.95 20-20v-30h-240v30c0 11.05 8.95 20 20 20M0 0h-200v10c0 22.09 17.9 40 40 40h120c22.09 0 40-17.91 40-40Z" style="stroke-linecap: round; stroke-linejoin: round; stroke-miterlimit: 10; stroke-dasharray: none; stroke-opacity: 1;" transform="translate(230.04 79)" fill="none" stroke="#223D5B" stroke-width="20px" stroke-linecap="round" stroke-linejoin="round" stroke-miterlimit="10" stroke-dasharray="none" stroke-opacity="" data-original="#000000" opacity="1"></path><path d="M0 0h46" style="stroke-linecap: round; stroke-linejoin: round; stroke-miterlimit: 10; stroke-dasharray: none; stroke-opacity: 1;" transform="translate(10.04 249)" fill="none" stroke="#223D5B" stroke-width="20px" stroke-linecap="round" stroke-linejoin="round" stroke-miterlimit="10" stroke-dasharray="none" stroke-opacity="" data-original="#000000" opacity="1"></path><path d="m0 0 28.29-28.28" style="stroke-linecap: round; stroke-linejoin: round; stroke-miterlimit: 10; stroke-dasharray: none; stroke-opacity: 1;" transform="translate(41.89 323.14)" fill="none" stroke="#223D5B" stroke-width="20px" stroke-linecap="round" stroke-linejoin="round" stroke-miterlimit="10" stroke-dasharray="none" stroke-opacity="" data-original="#000000" opacity="1"></path><path d="m0 0 28.29 28.28" style="stroke-linecap: round; stroke-linejoin: round; stroke-miterlimit: 10; stroke-dasharray: none; stroke-opacity: 1;" transform="translate(41.89 174.86)" fill="none" stroke="#223D5B" stroke-width="20px" stroke-linecap="round" stroke-linejoin="round" stroke-miterlimit="10" stroke-dasharray="none" stroke-opacity="" data-original="#000000" opacity="1"></path><path d="m0 0 28.28 28.28" style="stroke-linecap: round; stroke-linejoin: round; stroke-miterlimit: 10; stroke-dasharray: none; stroke-opacity: 1;" transform="translate(256.04 382.14)" fill="none" stroke="#223D5B" stroke-width="20px" stroke-linecap="round" stroke-linejoin="round" stroke-miterlimit="10" stroke-dasharray="none" stroke-opacity="" data-original="#000000" opacity="1"></path></g></g></svg>