<?xml version="1.0" standalone="no"?>
<!DOCTYPE svg PUBLIC "-//W3C//DTD SVG 20010904//EN"
 "http://www.w3.org/TR/2001/REC-SVG-20010904/DTD/svg10.dtd">
<svg version="1.0" xmlns="http://www.w3.org/2000/svg"
 width="600.000000pt" height="1280.000000pt" viewBox="0 0 600.000000 1280.000000"
 preserveAspectRatio="xMidYMid meet">

<g transform="translate(0.000000,1280.000000) scale(0.100000,-0.100000)"
fill="#000000" stroke="none">
<path d="M976 12675 c-198 -33 -379 -140 -506 -298 -62 -77 -142 -236 -172
-342 -22 -80 -22 -84 -25 -976 -3 -776 -6 -899 -18 -909 -22 -19 -22 -458 0
-466 22 -9 22 -385 0 -404 -23 -19 -23 -911 0 -930 22 -18 22 -242 0 -260 -23
-19 -23 -911 0 -930 13 -11 15 -359 15 -3019 0 -2928 1 -3008 20 -3093 41
-186 131 -350 258 -470 112 -105 194 -153 342 -200 l75 -23 2065 0 2065 0 87
28 c291 92 505 332 585 657 17 72 18 193 15 3259 -2 1752 -5 3188 -8 3193 -3
4 10 11 28 16 l33 8 3 722 c2 707 2 722 -17 722 -28 0 -52 11 -45 21 3 5 0 9
-5 9 -6 0 -11 -12 -11 -26 0 -14 4 -23 10 -19 6 3 10 1 10 -4 0 -6 -5 -11 -11
-11 -8 0 -10 -14 -6 -42 5 -34 3 -39 -5 -24 -8 14 -12 477 -14 1550 -2 1025
-7 1543 -14 1566 -12 41 -13 96 -2 103 4 2 2 2 -5 1 -7 -2 -15 6 -19 18 -5 16
-8 18 -15 7 -7 -11 -9 -9 -9 8 0 12 -7 28 -15 37 -8 8 -12 22 -9 31 4 10 -1
22 -14 31 -12 8 -19 21 -16 29 3 8 -10 29 -30 49 -19 20 -31 36 -25 36 6 0 8
7 5 16 -5 12 -2 15 10 10 14 -6 15 -4 4 9 -12 15 -15 14 -26 -7 -11 -18 -13
-19 -14 -5 0 9 -7 17 -16 17 -10 0 -14 6 -10 15 3 8 2 14 -2 14 -19 -3 -32 2
-32 14 -1 19 -36 57 -54 57 -10 0 -13 6 -9 17 5 13 2 15 -15 11 -15 -4 -19 -2
-15 8 6 17 9 17 34 3 11 -5 16 -15 13 -21 -4 -7 -3 -8 4 -4 17 10 17 11 -35
48 -76 54 -124 79 -136 72 -7 -4 -9 -3 -4 1 11 13 -118 55 -218 71 -130 20
-3958 19 -4079 -1z m4340 -100 c10 -8 25 -15 32 -15 7 0 22 -9 34 -20 19 -17
19 -20 5 -20 -9 0 -17 5 -17 10 0 6 -5 10 -10 10 -6 0 -24 10 -39 21 -17 13
-34 18 -42 14 -8 -5 -10 -4 -5 3 9 16 18 15 42 -3z m-4192 -426 c37 -29 35
-59 -4 -59 -23 0 -33 6 -40 25 -8 21 -16 25 -47 25 -43 0 -57 -7 -66 -32 -7
-18 -51 -25 -61 -10 -11 18 7 51 33 61 14 5 56 10 92 10 53 1 72 -3 93 -20z
m4145 -40 l-22 -32 21 -17 c24 -20 19 -30 -14 -30 -44 0 -54 10 -54 54 0 24 3
46 7 49 3 4 24 7 45 7 l39 0 -22 -31z m441 -45 c0 -8 -4 -14 -10 -14 -5 0 -10
9 -10 21 0 11 5 17 10 14 6 -3 10 -13 10 -21z m60 -3384 c0 -22 -4 -40 -10
-40 -6 0 -11 -49 -12 -122 -2 -100 -3 -108 -6 -43 -4 100 7 245 19 245 5 0 9
-18 9 -40z m-2515 -1331 c110 -12 349 -70 458 -110 126 -47 263 -126 246 -143
-3 -4 -41 10 -85 30 -192 87 -493 168 -688 185 -205 17 -526 -4 -716 -47 -84
-18 -269 -75 -359 -109 -25 -10 -6 -15 130 -39 459 -82 942 -135 1104 -121 92
8 68 -8 -55 -35 l-93 -21 -231 21 c-127 11 -298 27 -381 35 -312 31 -549 46
-810 51 -148 2 -301 9 -340 15 -95 15 -278 67 -287 82 -19 31 -6 36 30 12 74
-49 148 -68 262 -68 151 -1 347 40 810 168 381 105 667 132 1005 94z m1095
-306 l65 -6 -110 -19 c-162 -27 -354 -95 -443 -156 -96 -66 -252 -96 -497 -96
-275 0 -564 36 -1045 128 -291 55 -462 66 -750 46 l-105 -7 145 -1 c189 -3
328 -16 530 -52 312 -56 396 -70 675 -114 397 -63 457 -69 618 -63 230 8 493
79 721 193 102 52 164 65 332 71 223 8 312 -12 454 -102 79 -50 181 -143 221
-201 16 -23 29 -45 29 -48 0 -3 -12 -6 -27 -7 -27 0 -27 -1 -5 -9 39 -16 24
-21 -50 -15 -72 6 -125 -3 -204 -36 -30 -12 -34 -10 -70 18 -95 74 -175 96
-354 97 -105 0 -157 -5 -233 -22 -154 -35 -341 -52 -577 -52 -327 0 -551 29
-806 103 -204 60 -450 104 -738 133 -220 22 -574 44 -711 44 -137 0 -165 9
-108 33 21 9 47 17 57 19 11 2 -63 3 -165 3 -190 0 -319 10 -319 25 0 24 255
39 775 46 l440 6 320 -42 c176 -22 338 -45 360 -50 88 -20 301 -30 416 -21
132 11 207 28 330 76 105 41 185 60 314 74 173 19 344 21 515 4z m-2722 -366
l37 -12 3 -84 c3 -95 -5 -114 -39 -82 -34 32 -91 44 -141 30 -77 -20 -118 -75
-118 -159 0 -28 6 -63 14 -78 46 -89 155 -115 241 -56 19 13 36 20 38 16 1 -4
2 -45 2 -92 l0 -85 -40 -14 c-65 -22 -176 -17 -239 12 -229 105 -257 431 -49
565 91 58 191 72 291 39z m3032 -152 c0 -20 -5 -25 -25 -25 -21 0 -25 -5 -25
-30 0 -20 5 -30 15 -30 8 0 30 -8 49 -17 33 -15 37 -15 54 0 18 16 20 16 37
-3 17 -19 17 -21 1 -39 -16 -18 -16 -21 -1 -44 46 -71 23 -202 -48 -262 -91
-78 -202 -73 -288 14 -72 71 -85 141 -45 226 29 61 71 102 122 120 30 10 39
18 39 37 0 14 -6 23 -15 23 -31 1 -41 18 -31 53 1 1 37 2 81 2 79 0 80 0 80
-25z m-1432 -261 l-3 -199 -52 -3 -53 -3 0 205 0 205 48 3 c26 2 50 0 55 -3 4
-3 6 -95 5 -205z m-1106 9 c42 -109 74 -201 71 -205 -2 -5 -28 -8 -57 -8 -51
0 -53 1 -62 33 l-10 32 -76 3 -76 3 -12 -36 c-11 -34 -13 -35 -65 -35 -30 0
-56 3 -58 8 -2 4 30 96 71 205 l76 197 61 0 61 0 76 -197z m454 163 c30 -30
34 -40 34 -89 0 -58 -22 -100 -60 -112 -20 -6 -20 -7 2 -38 12 -18 37 -50 55
-71 48 -57 44 -66 -27 -66 l-60 0 -48 73 -47 72 -3 -72 -3 -73 -54 0 -55 0 0
205 0 205 116 0 116 0 34 -34z m434 -10 l0 -45 -42 -3 -43 -3 -3 -157 -3 -158
-54 0 -55 0 0 159 0 160 -42 3 c-43 3 -43 3 -46 46 l-3 42 145 0 146 0 0 -44z
m558 -33 c16 -43 33 -89 37 -102 10 -31 16 -21 56 86 l34 93 56 0 55 0 32
-192 c18 -106 32 -199 32 -206 0 -9 -15 -12 -52 -10 l-53 3 -14 103 c-8 56
-18 102 -22 102 -3 0 -26 -47 -49 -105 -37 -89 -47 -105 -66 -105 -19 0 -28
16 -66 112 l-43 112 -7 -40 c-4 -21 -13 -72 -19 -111 l-11 -73 -55 0 -55 0 5
33 c24 139 59 336 63 355 4 19 10 22 58 22 l54 0 30 -77z m672 32 l0 -45 -60
0 c-60 0 -60 0 -60 -30 0 -28 1 -29 57 -32 l56 -3 0 -45 0 -45 -57 -3 -57 -3
3 -32 c3 -31 4 -31 58 -32 l55 0 3 -48 3 -48 -115 3 c-64 2 -116 6 -116 11 0
4 0 95 0 202 l0 195 115 0 115 0 0 -45z m-2341 -454 c9 -6 12 -19 8 -40 -4
-16 -2 -33 3 -36 15 -9 12 -42 -6 -60 -11 -11 -30 -15 -57 -13 -45 3 -42 -5
-38 116 1 42 1 42 39 42 20 0 43 -4 51 -9z m83 -53 c3 -57 5 -63 26 -66 21 -3
22 0 22 62 0 59 2 66 20 66 18 0 20 -7 20 -61 0 -81 -11 -99 -58 -99 -53 0
-62 13 -62 92 0 53 3 68 15 68 10 0 15 -16 17 -62z m160 35 l16 -27 13 27 c7
15 20 27 31 27 17 0 16 -4 -7 -50 -14 -27 -25 -63 -25 -80 0 -20 -5 -30 -15
-30 -9 0 -15 9 -15 25 0 14 -11 48 -25 75 -30 59 -30 60 -7 60 9 0 25 -12 34
-27z m270 10 c26 -23 25 -104 -2 -128 -25 -22 -74 -22 -97 0 -25 25 -24 112 1
131 27 19 75 18 98 -3z m144 -38 c0 -28 6 -60 12 -72 16 -29 15 -33 -7 -33
-11 0 -23 12 -31 30 -7 17 -16 30 -21 30 -5 0 -9 -13 -9 -30 0 -23 -4 -30 -20
-30 -18 0 -20 7 -20 81 l0 80 48 -3 47 -3 1 -50z m204 40 c0 -10 -10 -15 -30
-15 -40 0 -38 -13 5 -33 28 -14 35 -22 35 -46 0 -39 -30 -61 -73 -52 -40 8
-38 24 3 31 39 6 40 20 5 40 -33 18 -46 48 -33 73 12 23 88 25 88 2z m140 0
c0 -10 -10 -15 -30 -15 -37 0 -41 -27 -5 -32 14 -2 26 -7 26 -13 0 -5 -12 -11
-26 -13 -39 -5 -35 -42 5 -42 20 0 30 -5 30 -15 0 -11 -12 -15 -50 -15 l-50 0
0 80 0 80 50 0 c38 0 50 -4 50 -15z m70 -50 l0 -65 29 0 c16 0 31 -6 35 -15 4
-12 -5 -15 -49 -15 l-55 0 0 80 c0 73 2 80 20 80 18 0 20 -7 20 -65z m120 0
l0 -65 30 0 c20 0 30 -5 30 -15 0 -11 -12 -15 -50 -15 l-50 0 0 80 c0 73 2 80
20 80 18 0 20 -7 20 -65z m170 -16 c0 -71 -2 -80 -17 -77 -15 3 -19 16 -21 67
-3 73 1 91 23 91 12 0 15 -15 15 -81z m95 41 c20 -45 29 -44 29 3 1 22 6 33
19 35 15 3 17 -6 17 -77 0 -75 -2 -81 -20 -81 -13 0 -26 12 -37 35 -21 45 -33
44 -33 -1 0 -28 -3 -35 -17 -32 -15 3 -18 15 -19 73 -2 79 0 85 25 85 11 0 25
-15 36 -40z m255 20 c7 -14 8 -26 0 -39 -7 -13 -7 -22 0 -26 14 -9 13 -48 -2
-63 -18 -18 -88 -16 -88 3 0 10 10 15 28 15 16 0 32 3 35 7 11 10 -14 33 -35
33 -27 0 -17 24 11 28 34 5 23 38 -12 34 -19 -3 -27 1 -27 12 0 25 76 22 90
-4z m140 1 c16 -31 12 -102 -7 -123 -20 -23 -66 -23 -84 -1 -18 20 -17 106 0
127 19 23 78 21 91 -3z m150 -11 c18 -44 28 -45 47 -6 10 22 24 36 35 36 16 0
18 -9 18 -81 0 -71 -2 -80 -17 -77 -14 3 -17 12 -15 38 l3 35 -19 -23 c-20
-25 -52 -22 -52 6 0 26 -11 6 -13 -24 -2 -18 -9 -30 -20 -32 -15 -3 -17 6 -17
77 0 73 2 81 19 81 11 0 23 -12 31 -30z m163 -50 c-1 -59 -5 -76 -17 -78 -14
-3 -16 9 -16 78 0 72 2 81 17 78 15 -3 18 -14 16 -78z m90 45 c21 -44 34 -45
33 -2 -1 26 3 32 19 32 18 0 20 -7 20 -75 0 -68 -2 -75 -21 -78 -15 -2 -26 7
-39 33 -25 45 -35 44 -35 -1 0 -28 -3 -35 -17 -32 -15 3 -18 15 -18 73 -1 39
1 73 3 78 9 19 40 4 55 -28z m-163 -5100 c10 -12 10 -18 0 -30 -11 -13 -130
-15 -962 -15 -834 0 -949 2 -954 15 -4 8 -4 22 0 30 5 13 120 15 954 15 832 0
951 -2 962 -15z"/>
<path d="M5083 6613 c9 -2 23 -2 30 0 6 3 -1 5 -18 5 -16 0 -22 -2 -12 -5z"/>
<path d="M4515 6376 c-42 -18 -81 -67 -89 -110 -25 -132 112 -230 228 -163 96
55 102 194 11 256 -42 28 -109 36 -150 17z m35 -31 c0 -8 -4 -15 -10 -15 -5 0
-10 7 -10 15 0 8 5 15 10 15 6 0 10 -7 10 -15z m-42 -46 c-2 -6 -8 -10 -13
-10 -5 0 -11 4 -13 10 -2 6 4 11 13 11 9 0 15 -5 13 -11z m73 -9 c14 -8 19
-21 19 -55 0 -39 -3 -45 -24 -51 -26 -6 -46 1 -46 17 0 5 6 9 13 9 6 0 12 13
13 30 1 16 -3 27 -7 24 -10 -6 -12 20 -2 29 8 9 11 9 34 -3z m104 -30 c11 -33
-11 -79 -37 -80 -4 0 -14 7 -22 16 -36 35 -6 116 34 94 10 -5 22 -19 25 -30z
m-195 -25 c0 -8 -4 -15 -9 -15 -13 0 -22 16 -14 24 11 11 23 6 23 -9z m18 -56
c-2 -6 -8 -10 -13 -10 -5 0 -11 4 -13 10 -2 6 4 11 13 11 9 0 15 -5 13 -11z
m42 -44 c0 -8 -4 -15 -10 -15 -5 0 -10 7 -10 15 0 8 5 15 10 15 6 0 10 -7 10
-15z"/>
<path d="M1962 6280 l-20 -60 43 0 44 0 -21 60 c-11 33 -21 60 -22 60 -2 0
-12 -27 -24 -60z"/>
<path d="M2427 6383 c-14 -13 -7 -84 8 -89 21 -9 65 23 65 46 0 30 -55 62 -73
43z"/>
<path d="M1840 5935 c0 -8 7 -15 15 -15 8 0 15 7 15 15 0 8 -7 15 -15 15 -8 0
-15 -7 -15 -15z"/>
<path d="M1840 5871 c0 -15 6 -21 21 -21 25 0 22 33 -4 38 -12 2 -17 -3 -17
-17z"/>
<path d="M2335 5921 c-13 -59 34 -96 57 -46 8 19 8 31 0 50 -16 35 -49 33 -57
-4z"/>
<path d="M2500 5935 c0 -8 5 -15 10 -15 6 0 10 7 10 15 0 8 -4 15 -10 15 -5 0
-10 -7 -10 -15z"/>
<path d="M3684 5936 c-11 -28 1 -81 18 -84 21 -4 33 35 24 73 -7 27 -33 34
-42 11z"/>
<path d="M5480 12460 c0 -5 5 -10 11 -10 5 0 7 5 4 10 -3 6 -8 10 -11 10 -2 0
-4 -4 -4 -10z"/>
<path d="M5520 12434 c0 -11 40 -47 46 -41 2 2 -7 14 -21 27 -14 13 -25 19
-25 14z"/>
<path d="M5591 12331 c-10 -6 -9 -10 3 -14 8 -3 18 -2 21 3 8 13 -9 20 -24 11z"/>
<path d="M5625 12290 c3 -5 8 -10 11 -10 2 0 4 5 4 10 0 6 -5 10 -11 10 -5 0
-7 -4 -4 -10z"/>
<path d="M5646 12255 c4 -8 10 -15 15 -15 4 0 6 7 3 15 -4 8 -10 15 -15 15 -4
0 -6 -7 -3 -15z"/>
<path d="M5690 12176 c0 -8 4 -17 9 -20 5 -4 7 3 4 14 -6 23 -13 26 -13 6z"/>
<path d="M5732 12050 c0 -14 2 -19 5 -12 2 6 2 18 0 25 -3 6 -5 1 -5 -13z"/>
<path d="M5751 12004 c0 -11 3 -14 6 -6 3 7 2 16 -1 19 -3 4 -6 -2 -5 -13z"/>
<path d="M5762 11950 c0 -14 2 -19 5 -12 2 6 2 18 0 25 -3 6 -5 1 -5 -13z"/>
<path d="M5767 11643 c2 -152 5 -278 8 -281 8 -8 5 520 -3 540 -4 10 -6 -107
-5 -259z"/>
<path d="M5753 11400 c0 -25 2 -35 4 -22 2 12 2 32 0 45 -2 12 -4 2 -4 -23z"/>
<path d="M5773 11200 c0 -47 2 -66 4 -42 2 23 2 61 0 85 -2 23 -4 4 -4 -43z"/>
<path d="M5774 10760 c0 -157 2 -221 3 -142 2 78 2 206 0 285 -1 78 -3 14 -3
-143z"/>
<path d="M5774 10280 c0 -69 1 -97 3 -62 2 34 2 90 0 125 -2 34 -3 6 -3 -63z"/>
<path d="M5774 9720 c0 -157 2 -221 3 -142 2 78 2 206 0 285 -1 78 -3 14 -3
-143z"/>
<path d="M5765 9198 c0 -93 3 -168 8 -168 9 0 8 216 -2 285 -4 30 -6 -16 -6
-117z"/>
<path d="M5760 9010 c0 -5 5 -10 10 -10 6 0 10 5 10 10 0 6 -4 10 -10 10 -5 0
-10 -4 -10 -10z"/>
<path d="M5 7845 c0 -308 1 -435 2 -283 2 152 2 404 0 560 -1 156 -2 31 -2
-277z"/>
</g>
</svg>
