<svg width="290" height="116" viewBox="0 0 290 116" fill="none" xmlns="http://www.w3.org/2000/svg">
<path d="M143.692 28.9888L146.586 28.1461L146.756 27.4719L146.246 27.6404L144.543 27.809L141.478 28.1461L138.414 28.4831L129.901 28.3146L126.837 28.4831L118.495 27.809L115.771 27.6404L101.64 25.618L97.3835 24.7753L92.4462 23.9326L86.6577 22.5843L77.4642 21.573L71.8459 20.5618L66.5681 19.7191L62.8226 19.382L60.7796 19.0449H60.0986L60.4391 17.8652L61.8011 17.3596L63.5036 16.5169L66.5681 15.5056L74.5699 12.6404L78.6559 11.1236L87.3387 8.25843L90.7437 7.58427L95.5107 6.23596L99.5968 5.5618L106.237 4.21348L111.174 3.37079L114.919 2.69663L118.324 2.35955L120.708 2.02247C122.978 1.96629 127.552 1.85393 127.688 1.85393H135.009C136.938 1.91011 141.036 2.02247 141.989 2.02247C142.943 2.02247 145.224 2.24719 146.246 2.35955C147.437 2.52809 149.889 2.86517 150.161 2.86517C150.502 2.86517 154.588 3.37079 154.758 3.37079C154.894 3.37079 158.106 4.04494 159.695 4.38202C161.284 4.7191 164.565 5.39326 164.973 5.39326C165.382 5.39326 168.889 6.40449 170.591 6.91011C172.861 7.52809 177.504 8.79775 177.912 8.93258C178.423 9.10112 182.849 10.9551 183.871 11.1236C184.892 11.2921 186.765 12.1348 187.106 12.1348C187.378 12.1348 188.354 12.6966 188.808 12.9775L189.489 12.6404L190 12.1348L188.638 11.1236L184.722 9.4382L181.658 8.42697L177.912 6.91011L165.654 3.70787L162.249 2.86517L157.312 1.85393L153.737 1.34831L147.267 0.337079L128.539 0L117.303 0.337079L112.195 1.01124L104.194 2.19101L95.8512 3.8764L86.1469 6.23596L77.2939 8.42697L56.6935 14.6629L44.095 18.5393L27.7509 22.9213L24.5161 23.5955L21.7921 24.4382L17.1953 25.1124L14.1308 25.4494H10.5556L6.81004 25.1124C5.95878 24.9438 4.22222 24.573 4.08602 24.4382C3.94982 24.3034 3.23477 24.2697 2.89427 24.2697L0.681004 23.764L0 24.1011L0.170251 24.7753C0.737754 25.1124 1.94086 25.7865 2.21326 25.7865C2.48566 25.7865 3.23477 26.236 3.57527 26.4607L5.61828 26.9663H8.6828L12.9391 27.809H16.5143L22.1326 26.9663L26.8996 25.7865L35.5824 25.1124L42.2222 24.6067H51.586L64.1846 25.1124L76.2724 25.7865L85.2957 26.4607L94.319 26.9663L101.47 27.809L105.556 28.1461L110.152 28.9888H113.557C113.898 28.9888 118.154 29.4944 118.495 29.4944C118.767 29.4944 123.262 29.8315 125.475 30H130.582H135.86C136.541 30 139.265 30 140.797 29.4944C142.023 29.0899 143.238 28.9888 143.692 28.9888Z" fill="#D9D9D9"/>
<path d="M226.095 20.1583L230 19.9928V19.3309L228.642 19H225.246L219.812 19.3309L208.775 19.8273L203.682 20.3237L196.72 21.3165L190.268 22.1439L184.495 23.4676L176.854 25.2878L173.458 26.1151L168.873 27.1079L160.383 29.5899L154.441 31.4101L150.891 32.6395L148.667 33.3957C147.818 33.6163 146.632 33.9767 146.496 33.9767C146.326 33.9767 144.592 34.554 144.423 34.554C144.287 34.554 142.999 34.9362 142.376 35.0465L138.819 35.2158H135.254H127.443L115.897 34.3885L101.973 32.7338L87.5407 31.5755L81.0884 30.9137L72.7684 30.5827L64.1088 30.0863H56.8075L37.4507 30.9137L32.8662 31.4101L29.6401 31.741L24.5462 32.5683L18.9429 33.3957L13 34.3885V35.3813L15.0376 35.0504L18.9429 34.3885L23.867 33.3957L27.0931 33.0647L33.036 32.4029L37.7903 32.0719L53.5814 31.5755L65.6369 32.0719L71.5798 32.4029L73.4476 32.7338L77.6925 33.3957L80.579 33.8921L85.1635 34.3885C86.8615 34.6643 90.3253 35.2158 90.597 35.2158C90.8687 35.2158 97.7285 36.3189 101.124 36.8705L109.614 38.0288L114.199 39.1871L117.934 39.6835L122.009 40.3453L129.311 41.1727C130.16 41.283 131.926 41.5036 132.197 41.5036C132.469 41.5036 134.348 41.6139 135.254 41.6691L138.819 42H145.102H150.365L155.969 41.6691L161.912 41.5036L165.308 41.0072L168.194 40.3453L171.76 39.8489L175.495 39.0216L180.589 37.3669L184.834 35.5468L187.381 34.3885L190.268 33.2302L198.248 29.4245L207.077 25.4532L212.681 23.4676L215.737 22.4748L218.284 21.8129L221.34 21.1511L223.208 20.6547L226.095 20.1583Z" fill="#D9D9D9"/>
<path d="M289.491 49.4757L290 49.9784H289.151L282.53 50.1459L279.304 50.4811L277.946 50.6486L276.248 50.8162C275.682 50.9279 274.482 51.1514 274.211 51.1514L270.985 51.6541L269.287 52.3243L267.59 53.1622L267.08 53.4973L266.401 53.8324H265.552L264.703 53.4973L264.024 52.9946L261.138 50.8162L259.61 49.6432L256.894 48.1351L255.196 47.2973L253.328 46.4595C252.706 46.236 251.393 45.7892 251.121 45.7892C250.85 45.7892 248.744 45.3423 247.726 45.1189L243.142 44.9514L239.067 44.7838L229.56 45.4541L224.127 46.2919L214.45 48.6378L205.282 50.4811L196.623 52.4919L187.625 53.4973L176.929 54H168.44L163.177 53.4973L158.763 53.3297L151.802 52.3243L145.69 51.8216L139.578 51.1514L135.164 50.4811L130.58 49.9784L124.468 48.973L118.866 48.1351L111.735 46.7946L105.793 45.9568L95.7761 44.2811L86.9478 43.1081L79.8172 42.1027L70.6493 40.9297L64.1978 40.2595L55.8787 39.7568L52.1437 39.4216L39.9198 38.7514L17 38.5838L20.3955 37.5784L24.9795 36.7405L29.0541 36.2378L33.6381 35.5676L37.3731 35.4L47.3899 35.2324L56.2183 35.4L64.7071 36.0703L71.1586 36.7405L79.8172 37.7459L87.6269 38.9189L96.1157 40.2595L105.793 41.9351L111.735 42.9405L119.205 44.4486L124.468 45.2865L130.58 46.1243L135.164 46.627L139.578 46.9622L145.69 47.2973H151.802H158.763L163.177 46.7946L168.44 46.1243L171.326 45.7892L175.231 44.7838L177.099 44.4486L178.797 43.9459L181.174 43.4432L182.532 42.9405L184.569 42.2703L188.134 40.9297L191.19 39.7568L193.737 38.5838L197.472 36.9081L200.358 35.4L203.244 33.8919L207.319 32.0486L211.733 29.8703L215.638 28.027L218.694 26.8541L222.09 25.6811L224.297 25.0108L226.504 24.5081L229.22 23.8378C230.352 23.6703 232.65 23.3351 232.785 23.3351C232.921 23.3351 235.106 23.1117 236.181 23H241.784L246.368 23.1676L249.084 23.5027L251.461 23.8378L254.856 24.5081L256.894 25.0108L259.78 26.0162L262.666 26.8541L266.062 28.3622L269.118 29.8703L272.513 31.8811L275.739 34.0595L278.455 36.2378L281.511 38.9189L284.907 42.4378L287.114 44.9514L287.453 46.1243L278.455 46.2919V46.627L281.172 47.2973L286.095 48.4703L289.491 49.4757Z" fill="#EBEBEB"/>
<path d="M253.825 66.845C255.932 69.5659 257.08 72.907 257.091 76.3482C257.101 79.7894 255.974 83.1375 253.883 85.8712C251.793 88.6049 248.858 90.5708 245.534 91.4628C242.211 92.3548 238.685 92.1228 235.507 90.8029C232.329 89.4831 229.677 87.1495 227.963 84.1654C226.249 81.1814 225.57 77.7144 226.032 74.3043C226.493 70.8941 228.069 67.7323 230.514 65.311C232.959 62.8897 236.137 61.3448 239.551 60.917V56.9H243.451V60.917C246.298 61.268 248.911 62.399 251.056 64.076L253.903 61.229L256.672 63.998L253.825 66.8255V66.845ZM241.501 88.1C244.604 88.1 247.58 86.8673 249.774 84.6731C251.968 82.479 253.201 79.503 253.201 76.4C253.201 73.297 251.968 70.321 249.774 68.1269C247.58 65.9327 244.604 64.7 241.501 64.7C238.398 64.7 235.422 65.9327 233.228 68.1269C231.034 70.321 229.801 73.297 229.801 76.4C229.801 79.503 231.034 82.479 233.228 84.6731C235.422 86.8673 238.398 88.1 241.501 88.1ZM235.651 53H247.351V56.9H235.651V53Z" fill="#EBEBEB"/>
<path d="M239.221 73.0234H240.741C241.144 73.0234 241.53 73.1823 241.815 73.4653C242.1 73.7482 242.26 74.132 242.26 74.5322C242.26 74.9323 242.1 75.3161 241.815 75.599C241.53 75.882 241.144 76.0409 240.741 76.0409M240.741 76.0409H240.234M240.741 76.0409C241.144 76.0409 241.53 76.1999 241.815 76.4828C242.1 76.7658 242.26 77.1496 242.26 77.5497C242.26 77.9499 242.1 78.3336 241.815 78.6166C241.53 78.8995 241.144 79.0585 240.741 79.0585H239.221M234.156 76.0409V76.051M238.715 68.1953V68.2054M238.715 83.8866V83.8966M235.372 80.5673V80.5773M235.372 71.5146V71.5247M245.299 74.5322V77.5497C245.299 77.9499 245.459 78.3336 245.744 78.6166C246.029 78.8995 246.416 79.0585 246.819 79.0585C247.222 79.0585 247.608 78.8995 247.893 78.6166C248.178 78.3336 248.338 77.9499 248.338 77.5497V74.5322C248.338 74.132 248.178 73.7482 247.893 73.4653C247.608 73.1823 247.222 73.0234 246.819 73.0234C246.416 73.0234 246.029 73.1823 245.744 73.4653C245.459 73.7482 245.299 74.132 245.299 74.5322Z" stroke="#EBEBEB" stroke-width="2" stroke-linecap="round" stroke-linejoin="round"/>
<path d="M51.8104 72.94C50.4504 71.28 48.7704 70.45 46.7704 70.45C45.8904 70.45 45.0704 70.61 44.3104 70.93C43.5704 71.25 42.9304 71.69 42.3904 72.25C41.8504 72.79 41.4204 73.44 41.1004 74.2C40.8004 74.96 40.6504 75.78 40.6504 76.66C40.6504 77.56 40.8004 78.39 41.1004 79.15C41.4204 79.91 41.8504 80.57 42.3904 81.13C42.9504 81.69 43.6004 82.13 44.3404 82.45C45.0804 82.77 45.8804 82.93 46.7404 82.93C48.6204 82.93 50.3104 82.13 51.8104 80.53V87.49L51.2104 87.7C50.3104 88.02 49.4704 88.25 48.6904 88.39C47.9104 88.55 47.1404 88.63 46.3804 88.63C44.8204 88.63 43.3204 88.34 41.8804 87.76C40.4604 87.16 39.2004 86.33 38.1004 85.27C37.0204 84.19 36.1504 82.92 35.4904 81.46C34.8304 79.98 34.5004 78.37 34.5004 76.63C34.5004 74.89 34.8204 73.3 35.4604 71.86C36.1204 70.4 36.9904 69.15 38.0704 68.11C39.1704 67.05 40.4404 66.23 41.8804 65.65C43.3204 65.05 44.8304 64.75 46.4104 64.75C47.3104 64.75 48.1904 64.85 49.0504 65.05C49.9304 65.23 50.8504 65.52 51.8104 65.92V72.94ZM73.3575 79.6L70.7175 72.07L68.0775 79.6H73.3575ZM74.9175 84.07H66.5175L65.1675 88H58.8975L67.5075 65.38H73.9275L82.5375 88H76.2675L74.9175 84.07ZM95.9902 75.49H97.1002C98.2602 75.49 99.1502 75.25 99.7702 74.77C100.39 74.29 100.7 73.6 100.7 72.7C100.7 71.8 100.39 71.11 99.7702 70.63C99.1502 70.15 98.2602 69.91 97.1002 69.91H95.9902V75.49ZM108.92 88H101.6L95.9902 79.3V88H90.1102V65.38H99.2602C100.52 65.38 101.62 65.57 102.56 65.95C103.5 66.31 104.27 66.81 104.87 67.45C105.49 68.09 105.95 68.83 106.25 69.67C106.57 70.51 106.73 71.41 106.73 72.37C106.73 74.09 106.31 75.49 105.47 76.57C104.65 77.63 103.43 78.35 101.81 78.73L108.92 88ZM140.155 70.36V88H134.275V70.36H129.445V65.38H144.985V70.36H140.155ZM158.48 65.38V88H152.6V65.38H158.48ZM167.186 88L171.026 65.38H176.846L181.376 77.44L185.876 65.38H191.696L195.536 88H189.686L187.736 74.98L182.396 88H180.056L174.986 74.98L173.036 88H167.186ZM217.131 70.36H210.141V74.14H216.741V79.12H210.141V83.02H217.131V88H204.261V65.38H217.131V70.36Z" fill="#EBEBEB"/>
<path d="M41.3901 104V95.145H44.9067C46.4492 95.145 47.4395 96.0654 47.4395 97.3159C47.4395 98.1411 47.0142 98.8457 46.1509 99.2329C47.2236 99.5884 47.8521 100.382 47.8521 101.467C47.8521 102.896 46.7793 104 45.0972 104H41.3901ZM44.9067 103.162C46.1001 103.162 46.8999 102.445 46.8999 101.423C46.8999 100.356 46.0366 99.6963 44.8877 99.6963H42.3423V103.162H44.9067ZM44.8877 98.8774C45.77 98.8774 46.4873 98.2427 46.4873 97.3667C46.4873 96.5732 45.897 95.9766 44.8433 95.9766H42.3423V98.8774H44.8877ZM54.6353 104.165C53.2959 104.165 52.4009 103.295 52.4009 101.715V97.5381H53.3276V101.537C53.3276 102.775 53.9243 103.333 54.8384 103.333C55.8032 103.333 56.5396 102.438 56.5396 101.378V97.5381H57.4727V104H56.5649V102.946C56.2031 103.708 55.4922 104.165 54.6353 104.165ZM63.126 106.603C62.9102 106.603 62.6626 106.577 62.5229 106.526V105.701C62.6499 105.746 62.8022 105.765 62.9482 105.765C63.6021 105.765 63.7925 105.32 63.9766 104.774L64.2305 104.032L61.8311 97.5381H62.834L64.7192 102.826L66.5474 97.5381H67.5439L64.8145 105.174C64.6177 105.714 64.2368 106.603 63.126 106.603ZM81.5229 104.165C78.9775 104.165 77.5557 102.254 77.5557 99.5757C77.5557 96.8716 78.9839 94.98 81.5229 94.98C84.0684 94.98 85.4966 96.8716 85.4966 99.5757C85.4966 102.254 84.0684 104.165 81.5229 104.165ZM81.5229 103.308C83.4336 103.308 84.5317 101.689 84.5317 99.563C84.5317 97.4492 83.4463 95.8306 81.5229 95.8306C79.606 95.8306 78.5205 97.4492 78.5205 99.563C78.5205 101.689 79.6187 103.308 81.5229 103.308ZM90.1851 104V97.5381H91.0801V98.6807C91.4229 97.8872 92.0068 97.4365 92.7876 97.4365C92.9653 97.4365 93.1685 97.4619 93.2954 97.5063V98.4141C93.1558 98.3696 92.959 98.3506 92.7749 98.3506C91.7402 98.3506 91.1118 99.2266 91.1118 100.21V104H90.1851ZM106.557 104.165C104.532 104.165 103.25 103.035 103.18 101.245H104.126C104.215 102.546 105.167 103.327 106.557 103.327C107.75 103.327 108.722 102.75 108.722 101.664C108.722 100.566 107.719 100.223 106.341 99.8359C105.135 99.5059 103.44 99.0615 103.44 97.2651C103.44 95.6274 104.837 94.98 106.398 94.98C108.227 94.98 109.318 95.8687 109.433 97.5254H108.487C108.379 96.3955 107.604 95.8179 106.36 95.8179C105.23 95.8179 104.393 96.3003 104.393 97.2461C104.393 98.3125 105.453 98.5981 106.583 98.9219C108.461 99.4678 109.674 99.9756 109.674 101.607C109.674 103.435 108.157 104.165 106.557 104.165ZM116.762 104.165C114.876 104.165 113.835 102.584 113.835 100.731C113.835 98.8394 114.934 97.373 116.724 97.373C118.393 97.373 119.536 98.6807 119.536 100.572V100.972H114.788C114.813 102.185 115.499 103.333 116.793 103.333C117.606 103.333 118.298 102.902 118.514 102.159H119.415C119.18 103.346 118.12 104.165 116.762 104.165ZM118.583 100.217C118.526 99.0615 117.79 98.2046 116.717 98.2046C115.581 98.2046 114.876 99.144 114.8 100.217H118.583ZM124.11 104V95.0879H125.037V104H124.11ZM130.055 104V95.0879H130.982V104H130.055ZM142.085 104V95.145H143.038V104H142.085ZM148.069 104V97.5381H148.977V98.5854C149.37 97.7793 150.164 97.373 150.925 97.373C152.252 97.373 153.141 98.249 153.141 99.874V104H152.208V100.001C152.208 98.7568 151.604 98.2109 150.722 98.2109C149.776 98.2109 148.996 99.0425 148.996 100.229V104H148.069ZM166.98 104.165C165.387 104.165 164.339 103.226 164.054 101.81L164.936 101.562C165.209 102.756 165.945 103.308 166.974 103.308C168.091 103.308 168.941 102.642 168.941 101.518C168.941 100.395 168.104 99.7344 166.929 99.7344H166.371V98.8647H166.929C168.002 98.8647 168.542 98.249 168.542 97.3477C168.542 96.3257 167.843 95.8369 166.942 95.8369C165.914 95.8369 165.298 96.4844 165.146 97.3984L164.2 97.1509C164.473 95.8052 165.463 94.98 166.91 94.98C168.37 94.98 169.506 95.8242 169.506 97.2524C169.506 98.1538 169.03 98.8647 168.192 99.2583C169.271 99.6011 169.906 100.42 169.906 101.537C169.906 103.118 168.668 104.165 166.98 104.165ZM177.8 104.165C175.788 104.165 174.665 102.273 174.665 99.5693C174.665 96.8208 175.788 94.98 177.8 94.98C179.806 94.98 180.936 96.8208 180.936 99.563C180.936 102.273 179.812 104.165 177.8 104.165ZM177.8 103.308C179.235 103.308 179.965 101.766 179.965 99.563C179.965 97.335 179.235 95.8369 177.8 95.8369C176.359 95.8369 175.629 97.3413 175.629 99.563C175.629 101.772 176.359 103.308 177.8 103.308ZM191.697 104V95.145H193.163L195.575 101.988C195.626 102.153 195.721 102.458 195.797 102.737C195.874 102.458 195.969 102.153 196.026 101.988L198.438 95.145H199.904V104H198.99V97.8428C198.99 97.481 199.022 96.3638 199.028 95.9702C198.908 96.3447 198.762 96.8525 198.628 97.208L196.21 104H195.391L192.966 97.208C192.858 96.9097 192.674 96.3257 192.573 95.9766C192.579 96.3638 192.611 97.481 192.611 97.8428V104H191.697ZM204.974 104V97.5381H205.9V104H204.974ZM204.942 96.2812V95.145H205.932V96.2812H204.942ZM210.951 104V97.5381H211.858V98.5854C212.252 97.7793 213.045 97.373 213.807 97.373C215.134 97.373 216.022 98.249 216.022 99.874V104H215.089V100.001C215.089 98.7568 214.486 98.2109 213.604 98.2109C212.658 98.2109 211.877 99.0425 211.877 100.229V104H210.951Z" fill="#BABABA"/>
</svg>
