<svg width="42" height="42" viewBox="0 0 42 42" fill="none" xmlns="http://www.w3.org/2000/svg">
<g clip-path="url(#clip0_882_90)">
<path d="M41.9597 41.1662L35.8074 24.9594C35.7563 24.8248 35.6596 24.7124 35.5342 24.6417L28.9811 20.9498L30.8943 17.9163C32.0685 16.0531 32.6892 13.8998 32.6892 11.6894C32.6892 5.24384 27.4454 0 20.9998 0C14.5542 0 9.31035 5.24384 9.31035 11.6894C9.31035 13.9004 9.93132 16.0537 11.1062 17.9165L13.0189 20.95L6.46551 24.6417C6.34006 24.7124 6.24337 24.8248 6.19226 24.9594L0.0399322 41.1662C-0.00485541 41.2844 -0.0121645 41.4135 0.0189982 41.536C0.050161 41.6585 0.118284 41.7684 0.214109 41.8509C0.309933 41.9333 0.428811 41.9842 0.554585 41.9967C0.680359 42.0092 0.806929 41.9826 0.917091 41.9207L10.8074 36.3486L20.6977 41.9207C20.7899 41.9726 20.8939 41.9999 20.9997 41.9999C21.1055 41.9999 21.2095 41.9726 21.3017 41.9207L31.1921 36.3486L41.0824 41.9207C41.1925 41.9828 41.3191 42.0095 41.445 41.997C41.5708 41.9846 41.6898 41.9337 41.7856 41.8512C41.8815 41.7687 41.9497 41.6588 41.9808 41.5362C42.012 41.4136 42.0046 41.2845 41.9597 41.1662ZM21.6151 31.8864C22.0063 31.7481 22.3394 31.4817 22.5602 31.1303C22.5914 31.0811 27.8289 22.7768 27.8289 22.7768L30.4965 35.3282L21.6151 40.3317V31.8864ZM12.147 17.26C11.0962 15.5939 10.5409 13.6677 10.5409 11.6893C10.5409 5.92223 15.2327 1.23038 20.9999 1.23038C26.767 1.23038 31.4588 5.92223 31.4588 11.6893C31.4588 13.6673 30.9036 15.5937 29.8536 17.26C29.7714 17.3902 21.665 30.2454 21.5235 30.4675C21.5222 30.4694 21.5211 30.4713 21.5199 30.4732C21.4057 30.6537 21.2114 30.7616 20.9999 30.7616C20.7881 30.7616 20.5929 30.6532 20.4786 30.4736C20.3964 30.3432 12.2738 17.4625 12.1498 17.2645L12.147 17.26ZM7.26351 25.6044L12.9988 22.3734L11.9997 27.0741C11.9806 27.1638 11.9817 27.2567 12.0032 27.3459C12.0246 27.435 12.0656 27.5183 12.1234 27.5896C12.1811 27.6608 12.2541 27.7183 12.3369 27.7577C12.4197 27.7972 12.5103 27.8176 12.602 27.8175C12.7429 27.8173 12.8794 27.7688 12.9888 27.6801C13.0982 27.5914 13.1738 27.4678 13.2031 27.3301L14.1709 22.7772L19.439 31.1319C19.6606 31.4823 19.9936 31.748 20.3845 31.8863V40.3319L11.5032 35.3282L12.6916 29.7371C12.7084 29.6581 12.7095 29.5765 12.6948 29.4971C12.68 29.4176 12.6498 29.3418 12.6058 29.2741C12.5618 29.2063 12.5049 29.1479 12.4383 29.1021C12.3717 29.0563 12.2968 29.0241 12.2178 29.0073C12.1387 28.9905 12.0572 28.9894 11.9777 29.0041C11.8982 29.0187 11.8225 29.049 11.7547 29.093C11.6869 29.137 11.6285 29.1939 11.5827 29.2605C11.537 29.3271 11.5048 29.4021 11.488 29.4812L10.2634 35.2427L1.79318 40.0148L7.26351 25.6044ZM31.7363 35.2428L29.0011 22.3733L34.7361 25.6044L40.2065 40.0148L31.7363 35.2428Z" fill="#223D5B"/>
<path d="M27.7695 11.6894C27.7695 7.95785 24.7335 4.92188 21.0019 4.92188C17.2703 4.92188 14.2344 7.95785 14.2344 11.6894C14.2344 15.421 17.2703 18.457 21.0019 18.457C24.7335 18.457 27.7695 15.421 27.7695 11.6894ZM15.4648 11.6894C15.4648 8.63624 17.9487 6.15234 21.0019 6.15234C24.0551 6.15234 26.539 8.63624 26.539 11.6894C26.539 14.7426 24.0551 17.2265 21.0019 17.2265C17.9487 17.2265 15.4648 14.7426 15.4648 11.6894Z" fill="#223D5B"/>
<path d="M25.3086 11.6894C25.3086 9.31481 23.3766 7.38281 21.0019 7.38281C18.6273 7.38281 16.6953 9.31481 16.6953 11.6894C16.6953 14.0641 18.6273 15.9961 21.0019 15.9961C23.3766 15.9961 25.3086 14.0641 25.3086 11.6894ZM17.9258 11.6894C17.9258 9.99321 19.3057 8.61328 21.0019 8.61328C22.6982 8.61328 24.0781 9.99321 24.0781 11.6894C24.0781 13.3857 22.6982 14.7656 21.0019 14.7656C19.3057 14.7656 17.9258 13.3857 17.9258 11.6894Z" fill="#223D5B"/>
</g>
<defs>
<clipPath id="clip0_882_90">
<rect width="42" height="42" fill="white"/>
</clipPath>
</defs>
</svg>
