<svg width="320" height="120" viewBox="0 0 320 120" fill="none" xmlns="http://www.w3.org/2000/svg">
<path d="M286.416 73.845C288.523 76.5659 289.671 79.907 289.681 83.3482C289.692 86.7894 288.564 90.1375 286.474 92.8712C284.384 95.6049 281.449 97.5708 278.125 98.4628C274.802 99.3548 271.276 99.1228 268.098 97.8029C264.92 96.4831 262.268 94.1495 260.554 91.1654C258.84 88.1814 258.161 84.7144 258.622 81.3043C259.084 77.8941 260.66 74.7323 263.105 72.311C265.55 69.8897 268.727 68.3448 272.142 67.917V63.9H276.042V67.917C278.889 68.268 281.502 69.399 283.647 71.076L286.494 68.229L289.263 70.998L286.416 73.8255V73.845ZM274.092 95.1C277.195 95.1 280.171 93.8673 282.365 91.6731C284.559 89.479 285.792 86.503 285.792 83.4C285.792 80.297 284.559 77.321 282.365 75.1268C280.171 72.9327 277.195 71.7 274.092 71.7C270.989 71.7 268.013 72.9327 265.819 75.1268C263.625 77.321 262.392 80.297 262.392 83.4C262.392 86.503 263.625 89.479 265.819 91.6731C268.013 93.8673 270.989 95.1 274.092 95.1ZM268.242 60H279.942V63.9H268.242V60Z" fill="#223D5B"/>
<path d="M271.813 80.0229H273.332C273.735 80.0229 274.122 80.1819 274.407 80.4648C274.692 80.7478 274.852 81.1315 274.852 81.5317C274.852 81.9318 274.692 82.3156 274.407 82.5985C274.122 82.8815 273.735 83.0404 273.332 83.0404M273.332 83.0404H272.826M273.332 83.0404C273.735 83.0404 274.122 83.1994 274.407 83.4824C274.692 83.7653 274.852 84.1491 274.852 84.5492C274.852 84.9494 274.692 85.3331 274.407 85.6161C274.122 85.899 273.735 86.058 273.332 86.058H271.813M266.748 83.0404V83.0505M271.306 75.1948V75.2049M271.306 90.8861V90.8961M267.964 87.5668V87.5768M267.964 78.5141V78.5242M277.891 81.5317V84.5492C277.891 84.9494 278.051 85.3331 278.336 85.6161C278.621 85.899 279.007 86.058 279.41 86.058C279.813 86.058 280.2 85.899 280.485 85.6161C280.77 85.3331 280.93 84.9494 280.93 84.5492V81.5317C280.93 81.1315 280.77 80.7478 280.485 80.4648C280.2 80.1819 279.813 80.0229 279.41 80.0229C279.007 80.0229 278.621 80.1819 278.336 80.4648C278.051 80.7478 277.891 81.1315 277.891 81.5317Z" stroke="#223D5B" stroke-width="2" stroke-linecap="round" stroke-linejoin="round"/>
<path d="M58.697 65.88C55.977 62.56 52.617 60.9 48.617 60.9C46.857 60.9 45.217 61.22 43.697 61.86C42.217 62.5 40.937 63.38 39.857 64.5C38.777 65.58 37.917 66.88 37.277 68.4C36.677 69.92 36.377 71.56 36.377 73.32C36.377 75.12 36.677 76.78 37.277 78.3C37.917 79.82 38.777 81.14 39.857 82.26C40.977 83.38 42.277 84.26 43.757 84.9C45.237 85.54 46.837 85.86 48.557 85.86C52.317 85.86 55.697 84.26 58.697 81.06V94.98L57.497 95.4C55.697 96.04 54.017 96.5 52.457 96.78C50.897 97.1 49.357 97.26 47.837 97.26C44.717 97.26 41.717 96.68 38.837 95.52C35.997 94.32 33.477 92.66 31.277 90.54C29.117 88.38 27.377 85.84 26.057 82.92C24.737 79.96 24.077 76.74 24.077 73.26C24.077 69.78 24.717 66.6 25.997 63.72C27.317 60.8 29.057 58.3 31.217 56.22C33.417 54.1 35.957 52.46 38.837 51.3C41.717 50.1 44.737 49.5 47.897 49.5C49.697 49.5 51.457 49.7 53.177 50.1C54.937 50.46 56.777 51.04 58.697 51.84V65.88ZM85.9565 84.8L82.4365 74.76L78.9165 84.8H85.9565ZM88.0365 90.76H76.8365L75.0365 96H66.6765L78.1565 65.84H86.7165L98.1965 96H89.8365L88.0365 90.76ZM114.467 79.32H115.947C117.493 79.32 118.68 79 119.507 78.36C120.333 77.72 120.747 76.8 120.747 75.6C120.747 74.4 120.333 73.48 119.507 72.84C118.68 72.2 117.493 71.88 115.947 71.88H114.467V79.32ZM131.707 96H121.947L114.467 84.4V96H106.627V65.84H118.827C120.507 65.84 121.973 66.0933 123.227 66.6C124.48 67.08 125.507 67.7467 126.307 68.6C127.133 69.4533 127.747 70.44 128.147 71.56C128.573 72.68 128.787 73.88 128.787 75.16C128.787 77.4533 128.227 79.32 127.107 80.76C126.013 82.1733 124.387 83.1333 122.227 83.64L131.707 96ZM151.465 72.48V96H143.625V72.48H137.185V65.84H157.905V72.48H151.465ZM174.232 65.84V96H166.392V65.84H174.232ZM184.173 96L189.293 65.84H197.053L203.093 81.92L209.093 65.84H216.853L221.973 96H214.173L211.573 78.64L204.453 96H201.333L194.573 78.64L191.973 96H184.173ZM249.099 72.48H239.779V77.52H248.579V84.16H239.779V89.36H249.099V96H231.939V65.84H249.099V72.48Z" fill="#223D5B"/>
<path d="M69.2109 114V102.1H72.9509C74.2769 102.1 75.2686 102.366 75.9259 102.899C76.5832 103.42 76.9119 104.168 76.9119 105.143C76.9119 105.8 76.7249 106.344 76.3509 106.775C75.9882 107.206 75.4896 107.466 74.8549 107.557C75.6596 107.693 76.2829 108.016 76.7249 108.526C77.1669 109.036 77.3879 109.671 77.3879 110.43C77.3879 111.507 76.9856 112.374 76.1809 113.031C75.3762 113.677 74.2599 114 72.8319 114H69.2109ZM71.5569 112.045H73.2399C73.7839 112.045 74.2202 111.903 74.5489 111.62C74.8776 111.325 75.0419 110.934 75.0419 110.447C75.0419 109.948 74.8549 109.518 74.4809 109.155C74.1182 108.781 73.5856 108.594 72.8829 108.594H71.5569V112.045ZM73.0359 104.055H71.5569V106.656H72.8659C73.3079 106.656 73.6989 106.52 74.0389 106.248C74.3902 105.976 74.5659 105.625 74.5659 105.194C74.5659 104.491 74.0559 104.112 73.0359 104.055ZM87.4234 112.98C86.6641 113.728 85.5648 114.102 84.1254 114.102C82.6861 114.102 81.5868 113.728 80.8274 112.98C80.0681 112.221 79.6884 111.099 79.6884 109.614V102.1H82.1704V109.818C82.1704 110.566 82.3348 111.144 82.6634 111.552C83.0034 111.949 83.4851 112.147 84.1084 112.147C84.7318 112.147 85.2134 111.949 85.5534 111.552C85.9048 111.144 86.0804 110.566 86.0804 109.818V102.1H88.5624V109.614C88.5624 111.099 88.1828 112.221 87.4234 112.98ZM99.7735 102.1L96.1185 108.985V114H93.6535V108.985L90.1515 102.1H92.7525L94.9115 106.758L97.2065 102.1H99.7735ZM110.391 114.085C108.725 114.085 107.467 113.513 106.617 112.368C105.767 111.212 105.342 109.744 105.342 107.965C105.342 106.186 105.767 104.735 106.617 103.613C107.479 102.491 108.737 101.93 110.391 101.93C112.057 101.93 113.321 102.491 114.182 103.613C115.044 104.735 115.474 106.186 115.474 107.965C115.474 110.402 114.732 112.158 113.247 113.235C112.465 113.802 111.513 114.085 110.391 114.085ZM110.425 103.885C109.825 103.885 109.32 104.095 108.912 104.514C108.187 105.239 107.824 106.39 107.824 107.965C107.824 109.155 108.045 110.147 108.487 110.94C108.929 111.722 109.575 112.113 110.425 112.113C111.287 112.113 111.933 111.716 112.363 110.923C112.794 110.118 113.009 109.144 113.009 107.999C113.009 106.843 112.777 105.868 112.312 105.075C111.859 104.282 111.23 103.885 110.425 103.885ZM120.3 108.832H120.096V113.983H117.631V102.083H121.405C122.685 102.083 123.643 102.366 124.278 102.933C124.912 103.488 125.23 104.287 125.23 105.33C125.23 105.965 125.009 106.548 124.567 107.081C124.125 107.602 123.586 107.903 122.952 107.982C123.405 108.107 123.756 108.316 124.006 108.611C124.255 108.894 124.516 109.359 124.788 110.005L126.471 113.983H123.938L122.289 110.175C122.051 109.631 121.796 109.274 121.524 109.104C121.263 108.923 120.855 108.832 120.3 108.832ZM121.337 104.021H120.096V106.894H121.167C121.62 106.894 121.971 106.747 122.221 106.452C122.481 106.157 122.612 105.795 122.612 105.364C122.612 104.469 122.187 104.021 121.337 104.021ZM139.788 102.525L139.38 104.514L138.326 104.225C137.578 104.055 136.926 103.97 136.371 103.97C135.6 103.97 135.215 104.338 135.215 105.075C135.215 105.358 135.345 105.619 135.606 105.857C135.878 106.084 136.218 106.276 136.626 106.435C137.034 106.582 137.47 106.769 137.935 106.996C138.4 107.223 138.836 107.466 139.244 107.727C139.652 107.988 139.986 108.345 140.247 108.798C140.519 109.251 140.655 109.773 140.655 110.362C140.655 111.529 140.275 112.447 139.516 113.116C138.768 113.773 137.708 114.102 136.337 114.102C135.634 114.102 134.932 114.011 134.229 113.83C133.538 113.637 132.965 113.416 132.512 113.167L133.243 111.348C134.286 111.824 135.317 112.062 136.337 112.062C136.915 112.062 137.368 111.932 137.697 111.671C138.026 111.399 138.19 111.053 138.19 110.634C138.19 110.215 138.003 109.869 137.629 109.597C137.255 109.314 136.802 109.064 136.269 108.849C135.736 108.622 135.204 108.373 134.671 108.101C134.138 107.818 133.685 107.427 133.311 106.928C132.937 106.418 132.75 105.817 132.75 105.126C132.75 104.095 133.073 103.307 133.719 102.763C134.365 102.208 135.232 101.93 136.32 101.93C137.419 101.93 138.575 102.128 139.788 102.525ZM150.076 114H142.987V102.1H150.076V104.055H145.452V106.554H149.651V108.543H145.452V112.045H150.076V114ZM159.756 114H152.701V102.1H155.166V112.045H159.756V114ZM168.291 114H161.236V102.1H163.701V112.045H168.291V114ZM176.731 114H174.266V102.1H176.731V114ZM188.517 114.017H185.933L181.904 106.69V114H179.388V102.1H181.904L186.052 109.784V102.1H188.517V114.017ZM197.111 107.013H198.896C199.474 107.013 199.927 106.849 200.256 106.52C200.596 106.18 200.766 105.761 200.766 105.262C200.766 104.287 200.205 103.8 199.083 103.8C198.697 103.8 198.278 103.857 197.825 103.97C197.371 104.083 197.009 104.197 196.737 104.31L196.346 104.497L195.938 102.746C196.312 102.531 196.793 102.344 197.383 102.185C197.983 102.015 198.533 101.93 199.032 101.93C200.301 101.93 201.247 102.219 201.871 102.797C202.494 103.364 202.806 104.14 202.806 105.126C202.806 105.817 202.641 106.424 202.313 106.945C201.984 107.455 201.559 107.772 201.038 107.897C201.661 107.999 202.177 108.282 202.585 108.747C202.993 109.2 203.197 109.778 203.197 110.481C203.197 111.614 202.817 112.504 202.058 113.15C201.31 113.785 200.256 114.102 198.896 114.102C198.318 114.102 197.757 114.034 197.213 113.898C196.669 113.762 196.272 113.626 196.023 113.49L195.632 113.303L196.312 111.586C197.218 112.017 198.068 112.232 198.862 112.232C199.666 112.232 200.244 112.09 200.596 111.807C200.958 111.524 201.14 111.127 201.14 110.617C201.14 110.107 200.941 109.693 200.545 109.376C200.159 109.047 199.61 108.883 198.896 108.883H197.111V107.013ZM213.562 108.016C213.562 111.076 212.718 112.991 211.029 113.762C210.519 113.989 209.936 114.102 209.278 114.102C206.57 114.102 205.215 112.073 205.215 108.016C205.215 106.373 205.504 104.984 206.082 103.851C206.388 103.25 206.83 102.78 207.408 102.44C207.986 102.1 208.678 101.93 209.482 101.93C212.202 101.93 213.562 103.959 213.562 108.016ZM211.437 108.05V107.982C211.437 105.194 210.757 103.8 209.397 103.8C208.672 103.8 208.145 104.191 207.816 104.973C207.499 105.755 207.34 106.769 207.34 108.016C207.34 109.263 207.499 110.277 207.816 111.059C208.145 111.841 208.672 112.232 209.397 112.232C210.757 112.232 211.437 110.838 211.437 108.05ZM231.479 114H229.014V106.622L226.889 111.212H224.747L222.622 106.639V114H220.174V102.1H222.792L225.835 108.475L229.014 102.1H231.479V114ZM236.013 114H233.548V102.1H236.013V114ZM247.798 114.017H245.214L241.185 106.69V114H238.669V102.1H241.185L245.333 109.784V102.1H247.798V114.017Z" fill="#7F7F7F"/>
<path d="M26.9996 36C27.1904 35.9991 27.3845 35.9985 27.5818 35.998C28.7649 35.677 31.1156 34.8422 33.4994 33.5C37.3631 31.3246 69.5919 32 81.2308 33.7102C86.5089 34.4857 142.305 44.9757 175.408 48.9575C201.89 52.143 232.391 40.2494 244.331 33.9044C247.248 31.8325 258.236 27.9997 278.842 29.2427C299.448 30.4858 314.595 47.4684 319.592 55.2701C315.869 55.4644 309.971 54.0672 308.927 54.6874C307.619 55.4644 318.083 56.3385 318.083 57.1154L319.592 58.2808C307.357 54.9399 300.441 59.0253 296.148 61C282.142 47.4813 257.981 50.5114 247.651 53.7162C229.909 57.0829 185.208 60.9611 148.342 49.5402C111.803 38.2206 49.614 35.943 27.5818 35.998C26.8474 36.1972 26.5628 36.1984 26.9996 36Z" fill="#223D5B"/>
<path d="M267.467 24.5978C268.258 24.6669 268.966 24.7562 269.586 24.8598C268.915 24.7721 268.207 24.6845 267.467 24.5978C258.699 23.8319 239.791 25.5476 219.562 37.7946C197.507 51.1467 134.586 40 110.086 35C104.586 34.5 86.6507 28.831 60.586 30.5C53.4175 31.1486 40.2939 31.2914 34.2007 31.8714C33.3607 32.3042 31.1952 33.0151 30.7345 32.9962C-61.5287 29.2157 82.2211 25.6943 93.9502 27.3633C105.679 29.0323 133.549 32.266 139.964 33.4135C142.344 33.839 172.545 40.1938 196.705 29.3453C215.234 21.0251 250.292 22.5858 267.467 24.5978Z" fill="#7F7F7F"/>
<path d="M19.5918 12.8767C22.5406 16.6113 33.3036 23.2548 52.7656 19.9527C77.093 15.825 112.378 5.21103 116.097 4.42481C119.974 3.60529 153.393 -4.32189 188.376 3.2455C216.363 9.29941 227.514 17.3647 229.592 20.6407C217.83 14.8423 188.155 3.2455 163.546 3.2455C132.785 3.2455 117.806 5.30933 89.4578 16.1199C89.4578 16.5922 169.702 31.8155 192.083 26.2741C193.133 25.9677 193.972 25.7017 194.5 25.5C193.795 25.7934 192.986 26.0506 192.083 26.2741C186.144 28.008 173.455 31.0341 172.092 31C169.925 30.9457 140.324 28.3063 130.272 27.4218C106.212 24.539 58.5918 22 52.0619 23.0976C44.743 24.3278 21.7029 17.4958 20.9992 16.8078C20.4362 16.2575 19.8264 13.9578 19.5918 12.8767Z" fill="#7F7F7F"/>
</svg>
