<svg xmlns="http://www.w3.org/2000/svg" version="1.1" xmlns:xlink="http://www.w3.org/1999/xlink" width="32" height="32" x="0" y="0" viewBox="0 0 682.667 682.667" style="enable-background:new 0 0 512 512" xml:space="preserve" class=""><g><defs><clipPath id="a" clipPathUnits="userSpaceOnUse"><path d="M0 512h512V0H0Z" fill="#223d5b" opacity="1" data-original="#000000" class=""></path></clipPath></defs><g clip-path="url(#a)" transform="matrix(1.33333 0 0 -1.33333 0 682.667)"><path d="M0 0h238.397c15.629 0 28.298-12.667 28.298-28.294v-440.412c0-15.626-12.669-28.294-28.298-28.294H-74.06c-15.628 0-28.297 12.668-28.297 28.294v440.412C-102.357-12.667-89.688 0-74.06 0h44.54" style="stroke-linecap: round; stroke-linejoin: round; stroke-miterlimit: 10; stroke-dasharray: none; stroke-opacity: 1;" transform="translate(173.831 504.5)" fill="none" stroke="#223D5B" stroke-width="15px" stroke-linecap="round" stroke-linejoin="round" stroke-miterlimit="10" stroke-dasharray="none" stroke-opacity="" data-original="#000000" opacity="1"></path><path d="M0 0h261.931" style="stroke-linecap: round; stroke-linejoin: round; stroke-miterlimit: 10; stroke-dasharray: none; stroke-opacity: 1;" transform="translate(139.964 289.106)" fill="none" stroke="#223D5B" stroke-width="15px" stroke-linecap="round" stroke-linejoin="round" stroke-miterlimit="10" stroke-dasharray="none" stroke-opacity="" data-original="#000000" opacity="1"></path><path d="M0 0h261.931" style="stroke-linecap: round; stroke-linejoin: round; stroke-miterlimit: 10; stroke-dasharray: none; stroke-opacity: 1;" transform="translate(139.964 248.666)" fill="none" stroke="#223D5B" stroke-width="15px" stroke-linecap="round" stroke-linejoin="round" stroke-miterlimit="10" stroke-dasharray="none" stroke-opacity="" data-original="#000000" opacity="1"></path><path d="M0 0h116.036" style="stroke-linecap: round; stroke-linejoin: round; stroke-miterlimit: 10; stroke-dasharray: none; stroke-opacity: 1;" transform="translate(139.964 208.226)" fill="none" stroke="#223D5B" stroke-width="15px" stroke-linecap="round" stroke-linejoin="round" stroke-miterlimit="10" stroke-dasharray="none" stroke-opacity="" data-original="#000000" opacity="1"></path><path d="M0 0h116.036" style="stroke-linecap: round; stroke-linejoin: round; stroke-miterlimit: 10; stroke-dasharray: none; stroke-opacity: 1;" transform="translate(139.964 167.786)" fill="none" stroke="#223D5B" stroke-width="15px" stroke-linecap="round" stroke-linejoin="round" stroke-miterlimit="10" stroke-dasharray="none" stroke-opacity="" data-original="#000000" opacity="1"></path><path d="M0 0h261.931" style="stroke-linecap: round; stroke-linejoin: round; stroke-miterlimit: 10; stroke-dasharray: none; stroke-opacity: 1;" transform="translate(139.964 369.986)" fill="none" stroke="#223D5B" stroke-width="15px" stroke-linecap="round" stroke-linejoin="round" stroke-miterlimit="10" stroke-dasharray="none" stroke-opacity="" data-original="#000000" opacity="1"></path><path d="M0 0h261.931" style="stroke-linecap: round; stroke-linejoin: round; stroke-miterlimit: 10; stroke-dasharray: none; stroke-opacity: 1;" transform="translate(139.964 329.546)" fill="none" stroke="#223D5B" stroke-width="15px" stroke-linecap="round" stroke-linejoin="round" stroke-miterlimit="10" stroke-dasharray="none" stroke-opacity="" data-original="#000000" opacity="1"></path><path d="M0 0a7.53 7.53 0 1 0-15.058.002A7.53 7.53 0 0 0 0 0" style="fill-opacity:1;fill-rule:nonzero;stroke:none" transform="translate(119.797 289.106)" fill="#223D5B" data-original="#000000" class="" opacity="1"></path><path d="M0 0a7.53 7.53 0 1 0-15.058.002A7.53 7.53 0 0 0 0 0" style="fill-opacity:1;fill-rule:nonzero;stroke:none" transform="translate(119.797 369.986)" fill="#223D5B" data-original="#000000" class="" opacity="1"></path><path d="M0 0a7.527 7.527 0 0 0-7.528-7.528 7.529 7.529 0 1 0 0 15.056A7.527 7.527 0 0 0 0 0" style="fill-opacity:1;fill-rule:nonzero;stroke:none" transform="translate(119.797 329.546)" fill="#223D5B" data-original="#000000" class="" opacity="1"></path><path d="M0 0a7.53 7.53 0 1 0-15.058.002A7.53 7.53 0 0 0 0 0" style="fill-opacity:1;fill-rule:nonzero;stroke:none" transform="translate(119.797 248.666)" fill="#223D5B" data-original="#000000" class="" opacity="1"></path><path d="M0 0a7.527 7.527 0 0 0-7.528-7.527 7.528 7.528 0 1 0 0 15.055A7.527 7.527 0 0 0 0 0" style="fill-opacity:1;fill-rule:nonzero;stroke:none" transform="translate(119.797 208.226)" fill="#223D5B" data-original="#000000" class="" opacity="1"></path><path d="M0 0a7.527 7.527 0 0 0-7.528-7.528A7.529 7.529 0 1 0 0 0" style="fill-opacity:1;fill-rule:nonzero;stroke:none" transform="translate(119.797 167.786)" fill="#223D5B" data-original="#000000" class="" opacity="1"></path><path d="M0 0h116.036" style="stroke-linecap: round; stroke-linejoin: round; stroke-miterlimit: 10; stroke-dasharray: none; stroke-opacity: 1;" transform="translate(139.964 127.346)" fill="none" stroke="#223D5B" stroke-width="15px" stroke-linecap="round" stroke-linejoin="round" stroke-miterlimit="10" stroke-dasharray="none" stroke-opacity="" data-original="#000000" opacity="1"></path><path d="M0 0a7.527 7.527 0 0 0-7.528-7.528A7.529 7.529 0 1 0 0 0" style="fill-opacity:1;fill-rule:nonzero;stroke:none" transform="translate(119.797 127.346)" fill="#223D5B" data-original="#000000" class="" opacity="1"></path><path d="M0 0h116.036" style="stroke-linecap: round; stroke-linejoin: round; stroke-miterlimit: 10; stroke-dasharray: none; stroke-opacity: 1;" transform="translate(139.964 86.905)" fill="none" stroke="#223D5B" stroke-width="15px" stroke-linecap="round" stroke-linejoin="round" stroke-miterlimit="10" stroke-dasharray="none" stroke-opacity="" data-original="#000000" opacity="1"></path><path d="M0 0h42.083" style="stroke-linecap: round; stroke-linejoin: round; stroke-miterlimit: 10; stroke-dasharray: none; stroke-opacity: 1;" transform="translate(112.268 46.465)" fill="none" stroke="#223D5B" stroke-width="15px" stroke-linecap="round" stroke-linejoin="round" stroke-miterlimit="10" stroke-dasharray="none" stroke-opacity="" data-original="#000000" opacity="1"></path><path d="M0 0h42.083" style="stroke-linecap: round; stroke-linejoin: round; stroke-miterlimit: 10; stroke-dasharray: none; stroke-opacity: 1;" transform="translate(352.147 46.465)" fill="none" stroke="#223D5B" stroke-width="15px" stroke-linecap="round" stroke-linejoin="round" stroke-miterlimit="10" stroke-dasharray="none" stroke-opacity="" data-original="#000000" opacity="1"></path><path d="M0 0a7.527 7.527 0 0 0-7.528-7.527 7.528 7.528 0 1 0 0 15.055A7.528 7.528 0 0 0 0 0" style="fill-opacity:1;fill-rule:nonzero;stroke:none" transform="translate(119.797 86.905)" fill="#223D5B" data-original="#000000" class="" opacity="1"></path><path d="M0 0h-22.269v-54.935" style="stroke-linecap: round; stroke-linejoin: round; stroke-miterlimit: 10; stroke-dasharray: none; stroke-opacity: 1;" transform="translate(222.559 465.959)" fill="none" stroke="#223D5B" stroke-width="15px" stroke-linecap="round" stroke-linejoin="round" stroke-miterlimit="10" stroke-dasharray="none" stroke-opacity="" data-original="#000000" opacity="1"></path><path d="M0 0h20.5" style="stroke-linecap: round; stroke-linejoin: round; stroke-miterlimit: 10; stroke-dasharray: none; stroke-opacity: 1;" transform="translate(200.29 439.012)" fill="none" stroke="#223D5B" stroke-width="15px" stroke-linecap="round" stroke-linejoin="round" stroke-miterlimit="10" stroke-dasharray="none" stroke-opacity="" data-original="#000000" opacity="1"></path><path d="M0 0h-22.269v-54.935" style="stroke-linecap: round; stroke-linejoin: round; stroke-miterlimit: 10; stroke-dasharray: none; stroke-opacity: 1;" transform="translate(279.276 465.959)" fill="none" stroke="#223D5B" stroke-width="15px" stroke-linecap="round" stroke-linejoin="round" stroke-miterlimit="10" stroke-dasharray="none" stroke-opacity="" data-original="#000000" opacity="1"></path><path d="M0 0h20.499" style="stroke-linecap: round; stroke-linejoin: round; stroke-miterlimit: 10; stroke-dasharray: none; stroke-opacity: 1;" transform="translate(257.008 439.012)" fill="none" stroke="#223D5B" stroke-width="15px" stroke-linecap="round" stroke-linejoin="round" stroke-miterlimit="10" stroke-dasharray="none" stroke-opacity="" data-original="#000000" opacity="1"></path><path d="M0 0h-23.108v-54.834H0" style="stroke-linecap: round; stroke-linejoin: round; stroke-miterlimit: 10; stroke-dasharray: none; stroke-opacity: 1;" transform="translate(332.749 466.43)" fill="none" stroke="#223D5B" stroke-width="15px" stroke-linecap="round" stroke-linejoin="round" stroke-miterlimit="10" stroke-dasharray="none" stroke-opacity="" data-original="#000000" opacity="1"></path><path d="M0 0h-21.404" style="stroke-linecap: round; stroke-linejoin: round; stroke-miterlimit: 10; stroke-dasharray: none; stroke-opacity: 1;" transform="translate(331.045 439.012)" fill="none" stroke="#223D5B" stroke-width="15px" stroke-linecap="round" stroke-linejoin="round" stroke-miterlimit="10" stroke-dasharray="none" stroke-opacity="" data-original="#000000" opacity="1"></path><path d="m0 0 23.25-26.413" style="stroke-linecap: round; stroke-linejoin: round; stroke-miterlimit: 10; stroke-dasharray: none; stroke-opacity: 1;" transform="translate(375.92 437.754)" fill="none" stroke="#223D5B" stroke-width="15px" stroke-linecap="round" stroke-linejoin="round" stroke-miterlimit="10" stroke-dasharray="none" stroke-opacity="" data-original="#000000" opacity="1"></path><path d="M0 0v-55.34" style="stroke-linecap: round; stroke-linejoin: round; stroke-miterlimit: 10; stroke-dasharray: none; stroke-opacity: 1;" transform="translate(369.247 466.682)" fill="none" stroke="#223D5B" stroke-width="15px" stroke-linecap="round" stroke-linejoin="round" stroke-miterlimit="10" stroke-dasharray="none" stroke-opacity="" data-original="#000000" opacity="1"></path><path d="M0 0c0-7.943-6.966-14.382-15.198-14.382-4.083 0-14.606-.063-14.606-.063S-29.869-4.004-29.869 0c0 3.289-.037 14.382-.037 14.382h14.708C-6.966 14.382 0 7.943 0 0Z" style="stroke-linecap: round; stroke-linejoin: round; stroke-miterlimit: 10; stroke-dasharray: none; stroke-opacity: 1;" transform="translate(399.17 452.3)" fill="none" stroke="#223D5B" stroke-width="15px" stroke-linecap="round" stroke-linejoin="round" stroke-miterlimit="10" stroke-dasharray="none" stroke-opacity="" data-original="#000000" opacity="1"></path><path d="M0 0c0-15.282-12.39-27.67-27.674-27.67-15.284 0-27.674 12.388-27.674 27.67 0 15.282 12.39 27.67 27.674 27.67C-12.39 27.67 0 15.282 0 0Z" style="stroke-linecap: round; stroke-linejoin: round; stroke-miterlimit: 10; stroke-dasharray: none; stroke-opacity: 1;" transform="translate(166.302 438.492)" fill="none" stroke="#223D5B" stroke-width="15px" stroke-linecap="round" stroke-linejoin="round" stroke-miterlimit="10" stroke-dasharray="none" stroke-opacity="" data-original="#000000" opacity="1"></path><path d="M0 0v1.443c0 9.49-7.694 17.182-17.185 17.182h-20.956c-9.49 0-17.183-7.692-17.183-17.182v-12.864c0-9.489 7.693-17.182 17.183-17.182h20.956C-7.694-28.603 0-36.295 0-45.784v-12.863c0-9.49-7.694-17.183-17.185-17.183h-20.956c-9.49 0-17.183 7.693-17.183 17.183" style="stroke-linecap: round; stroke-linejoin: round; stroke-miterlimit: 10; stroke-dasharray: none; stroke-opacity: 1;" transform="translate(373.188 175.019)" fill="none" stroke="#223D5B" stroke-width="15px" stroke-linecap="round" stroke-linejoin="round" stroke-miterlimit="10" stroke-dasharray="none" stroke-opacity="" data-original="#000000" opacity="1"></path><path d="M0 0v-119.26" style="stroke-linecap: round; stroke-linejoin: round; stroke-miterlimit: 10; stroke-dasharray: none; stroke-opacity: 1;" transform="translate(345.526 207.195)" fill="none" stroke="#223D5B" stroke-width="15px" stroke-linecap="round" stroke-linejoin="round" stroke-miterlimit="10" stroke-dasharray="none" stroke-opacity="" data-original="#000000" opacity="1"></path></g></g></svg>