<svg width="42" height="42" viewBox="0 0 42 42" fill="none" xmlns="http://www.w3.org/2000/svg">
<g clip-path="url(#clip0_882_95)">
<path d="M14.2734 19.6875H5.41406C2.4287 19.6875 0 17.2588 0 14.2734V5.41406C0 2.4287 2.4287 0 5.41406 0H14.2734C17.2588 0 19.6875 2.4287 19.6875 5.41406V14.2734C19.6875 17.2588 17.2588 19.6875 14.2734 19.6875ZM5.41406 2.625C3.87614 2.625 2.625 3.87614 2.625 5.41406V14.2734C2.625 15.8114 3.87614 17.0625 5.41406 17.0625H14.2734C15.8114 17.0625 17.0625 15.8114 17.0625 14.2734V5.41406C17.0625 3.87614 15.8114 2.625 14.2734 2.625H5.41406ZM36.5859 19.6875H27.7266C24.7412 19.6875 22.3125 17.2588 22.3125 14.2734V5.41406C22.3125 2.4287 24.7412 0 27.7266 0H36.5859C39.5713 0 42 2.4287 42 5.41406V14.2734C42 17.2588 39.5713 19.6875 36.5859 19.6875ZM27.7266 2.625C26.1886 2.625 24.9375 3.87614 24.9375 5.41406V14.2734C24.9375 15.8114 26.1886 17.0625 27.7266 17.0625H36.5859C38.1239 17.0625 39.375 15.8114 39.375 14.2734V5.41406C39.375 3.87614 38.1239 2.625 36.5859 2.625H27.7266ZM32.1562 42C26.7284 42 22.3125 37.5841 22.3125 32.1562C22.3125 26.7284 26.7284 22.3125 32.1562 22.3125C37.5841 22.3125 42 26.7284 42 32.1562C42 37.5841 37.5841 42 32.1562 42ZM32.1562 24.9375C28.1758 24.9375 24.9375 28.1758 24.9375 32.1562C24.9375 36.1367 28.1758 39.375 32.1562 39.375C36.1367 39.375 39.375 36.1367 39.375 32.1562C39.375 28.1758 36.1367 24.9375 32.1562 24.9375ZM14.2734 42H5.41406C2.4287 42 0 39.5713 0 36.5859V27.7266C0 24.7412 2.4287 22.3125 5.41406 22.3125H14.2734C17.2588 22.3125 19.6875 24.7412 19.6875 27.7266V36.5859C19.6875 39.5713 17.2588 42 14.2734 42ZM5.41406 24.9375C3.87614 24.9375 2.625 26.1886 2.625 27.7266V36.5859C2.625 38.1239 3.87614 39.375 5.41406 39.375H14.2734C15.8114 39.375 17.0625 38.1239 17.0625 36.5859V27.7266C17.0625 26.1886 15.8114 24.9375 14.2734 24.9375H5.41406Z" fill="#223D5B"/>
</g>
<defs>
<clipPath id="clip0_882_95">
<rect width="42" height="42" fill="white"/>
</clipPath>
</defs>
</svg>
