<svg xmlns="http://www.w3.org/2000/svg" version="1.1" xmlns:xlink="http://www.w3.org/1999/xlink" width="32" height="32" x="0" y="0" viewBox="0 0 512 512" style="enable-background:new 0 0 512 512" xml:space="preserve" class=""><g><path d="M466.71 170.631h-6.37c9.14-8.53 15.71-20.89 18.05-35.07 5.95-5.62 10.3-14.4 13.25-26.71.03-.14.06-.29.09-.44 2.74-16.01-.56-30.38-9.54-41.58-10.5-13.07-28.5-21.15-49.37-22.16-33.35-1.62-55.97 18.03-63.62 38.25-7.23 19.11-2.19 38.42 13.45 52.17 2.28 14.38 8.89 26.91 18.13 35.54h-8.76c-20.38 0-37.64 13.6-43.18 32.2l-9.12-13.78c-7.26-10.97-18.96-17.25-32.09-17.25h-45.62c2.26-8.37 3.47-17.17 3.47-26.25 0-55.63-45.27-100.89-100.91-100.89-55.63 0-100.89 45.26-100.89 100.89 0 16.12 3.8 31.36 10.57 44.89l-27.45 41.42H17.76c-9.64 0-17.49 7.86-17.49 17.52 0 9.64 7.85 17.49 17.49 17.49h5.69l-14.21 20.99.01.01a6.908 6.908 0 0 0-1.19 4.4l8.77 126.82v20.5c0 15.34 12.48 27.83 27.83 27.83h36.8c15.35 0 27.83-12.49 27.83-27.83v-13.84h196.3v13.84c0 15.34 12.49 27.83 27.84 27.83h36.79c3.87 0 7.61-.79 11.05-2.28a6.983 6.983 0 0 0 5.17 2.28h43.411l.039.002.086-.001.016-.001h40.919c3.87 0 7-3.13 7-7v-128.94c19.66-5.03 33.82-22.79 33.82-43.6v-72.23c-.001-24.82-20.201-45.02-45.021-45.02zm-70.92-46.6c0-.93 0-1.81.05-2.6 0-.06.01-.12 0-.17.01-.02.01-.05.01-.07v-.05c.3-2.89 1.06-5.08 2.26-6.53 3.14-3.78 11.04-4.27 20.18-4.83 12.68-.79 28.03-1.74 40.9-12.03 4.17 7.52 6.03 18.64 5.66 33.65v.03c-2.26 17.46-12.33 31.54-25.41 36-.2.05-.4.11-.6.2-.04.01-.08.02-.13.04-2.61.81-5.34 1.24-8.14 1.24-2.93 0-5.78-.47-8.5-1.35-.11-.04-.22-.08-.33-.11-14.92-5.06-25.95-22.61-25.95-43.42zm-121.07 222.27-14.1 33.7H154.26l-14.1-33.7zm-170.98-19.79-.32 26.05a6.98 6.98 0 0 1-3.01 5.67 7.029 7.029 0 0 1-3.99 1.25c-.8 0-1.61-.14-2.38-.42l-52.1-18.88c-2.77-1-4.62-3.64-4.62-6.58v-19.22c0-2.13.97-4.15 2.64-5.48s3.85-1.83 5.93-1.34l52.41 12.04c3.21.74 5.48 3.62 5.44 6.91zm273.8 3.97v3.12c0 2.94-1.85 5.58-4.62 6.58l-52.07 18.88a7.01 7.01 0 0 1-6.37-.82 7.004 7.004 0 0 1-3.02-5.67l-.34-26.05a7.008 7.008 0 0 1 5.44-6.92l36.99-8.48c5.42 8.92 13.88 15.89 23.99 19.36zM164.57 58.671c47.92 0 86.91 38.97 86.91 86.88s-38.99 86.88-86.91 86.88c-47.91 0-86.88-38.97-86.88-86.88s38.97-86.88 86.88-86.88zm-82.35 145.09c18.29 25.8 48.39 42.67 82.35 42.67 41.34 0 76.95-24.97 92.52-60.63h50.54c8.47 0 15.72 3.9 20.41 10.98l18.94 28.61v59.4H28.23l14.25-21.05zm354.59 249.66-.994-82.771c-.046-3.866-3.178-6.938-7.085-6.917a7.002 7.002 0 0 0-6.917 7.085l.992 82.604H393.44v-127.96l-.001-.032v-8.752h70.468v8.985c0 .024.003.048.004.073v127.686H436.81zm60.91-165.54c0 13.07-8.11 24.39-19.81 28.91V246.49a7.002 7.002 0 0 0-14.004 0v56.183h-70.468V246.49a7.002 7.002 0 0 0-14.004 0v69.693l-.005-.002c-10.93-4.89-18.45-15.91-18.45-28.3v-72.23c0-17.1 13.93-31.01 31.04-31.01h19.81l-4.42 47.88c-.15 1.68.31 3.36 1.29 4.73l16.19 22.51c1.31 1.83 3.43 2.92 5.68 2.92s4.37-1.09 5.69-2.92l16.18-22.51a6.95 6.95 0 0 0 1.29-4.73l-4.44-47.88h17.42c17.1 0 31.01 13.91 31.01 31.01v72.23zM185.994 172.744c1.85-2.11 2.91-5.152 2.91-8.346 0-5.465-3.033-11.848-11.58-11.848h-25.511c-16.781 0-25.562-13.006-25.562-25.853 0-6.635 2.264-12.875 6.373-17.571 4.674-5.34 11.488-8.281 19.188-8.281h5.754V86.673a7.002 7.002 0 0 1 14.004 0v14.173h24.35a7.002 7.002 0 0 1 0 14.004h-44.107c-3.708 0-6.618 1.178-8.651 3.5-1.847 2.111-2.906 5.154-2.906 8.349 0 5.466 3.026 11.849 11.558 11.849H177.325c16.796 0 25.583 13.006 25.583 25.852 0 6.637-2.266 12.878-6.381 17.574-4.678 5.338-11.497 8.278-19.202 8.278h-5.754v14.173a7.002 7.002 0 0 1-14.004 0v-14.173h-24.32a7.002 7.002 0 0 1 0-14.004h44.078c3.715-.001 6.632-1.18 8.669-3.504z" fill="#223D5B" opacity="1" data-original="#000000" class=""></path></g></svg>