<svg width="42" height="42" viewBox="0 0 42 42" fill="none" xmlns="http://www.w3.org/2000/svg">
<path d="M36.1778 17.3614H36.0739V14.8144C36.0739 6.63262 29.4413 0 21.2595 0C13.0777 0 6.44515 6.63262 6.44515 14.8144V17.3614H5.82143C3.53428 17.3614 1.76698 19.3886 1.76698 21.7277V28.2253C1.70937 30.4924 3.50065 32.377 5.7678 32.4346C5.78571 32.4351 5.80352 32.4354 5.82143 32.4356H9.66794C10.2128 32.41 10.6337 31.9475 10.608 31.4027C10.6072 31.3831 10.6057 31.3635 10.6036 31.344V18.6088C10.6036 17.9851 10.2397 17.3613 9.66794 17.3613H8.52436V14.8143C8.52436 7.78087 14.2261 2.07911 21.2595 2.07911C28.2929 2.07911 33.9946 7.78087 33.9946 14.8143V17.3613H32.8511C32.2793 17.3613 31.9154 17.985 31.9154 18.6088V31.344C31.8574 31.8863 32.25 32.373 32.7924 32.431C32.8119 32.4331 32.8315 32.4346 32.8511 32.4355H34.0466L33.9426 32.5914C33.1734 33.6137 32.1759 34.4422 31.0298 35.0108C29.8836 35.5793 28.6205 35.8722 27.3411 35.8661C26.7732 33.0814 24.0553 31.2843 21.2705 31.8523C18.8892 32.3379 17.1722 34.4235 17.153 36.8538C17.1815 39.7043 19.5005 42 22.351 41.9998C23.7622 41.9769 25.1072 41.3978 26.0936 40.3884C26.7591 39.7069 27.1952 38.8346 27.3411 37.8933C28.9433 37.8994 30.5248 37.5313 31.9596 36.8184C33.3944 36.1055 34.643 35.0675 35.6059 33.7869L36.5936 32.3314C38.8287 32.1755 40.2322 30.7721 40.2322 28.7448V22.2473C40.2323 20.0124 38.569 17.3614 36.1778 17.3614ZM8.52436 30.3564H5.82143C4.70213 30.3291 3.81684 29.3998 3.8441 28.2805C3.8446 28.2621 3.84529 28.2437 3.84619 28.2252V21.7276C3.84619 20.5321 4.67785 19.4405 5.82143 19.4405H8.52436V30.3564ZM24.5863 38.9331C24.3013 39.2421 23.9558 39.4893 23.5713 39.6592C23.1868 39.8291 22.7715 39.9181 22.3511 39.9208C20.66 39.8939 19.2875 38.5444 19.2323 36.8539C19.2316 35.1601 20.6041 33.7865 22.2979 33.7858C23.9917 33.7851 25.3653 35.1576 25.366 36.8514V36.8539C25.3874 37.2356 25.3291 37.6176 25.1949 37.9755C25.0606 38.3335 24.8534 38.6596 24.5863 38.9331ZM38.1531 28.745C38.1531 30.1485 36.8016 30.3564 36.1778 30.3564H33.9946V19.4406H36.1778C37.3214 19.4406 38.1531 21.052 38.1531 22.2475V28.745Z" fill="#223D5B"/>
</svg>
