<svg width="176" height="220" viewBox="0 0 176 220" fill="none" xmlns="http://www.w3.org/2000/svg">
<path d="M157.581 78.108C169.467 93.4583 175.943 112.307 176 131.721C176.062 151.135 169.698 170.024 157.909 185.446C146.119 200.869 129.562 211.96 110.811 216.992C92.0661 222.024 72.1757 220.715 54.2484 213.269C36.321 205.823 21.3609 192.658 11.6921 175.823C2.02331 158.988 -1.80684 139.429 0.793694 120.19C3.39987 100.951 12.2902 83.1138 26.0826 69.4538C39.875 55.7938 57.7966 47.0781 77.0609 44.6646V22.0023H99.061V44.6646C115.121 46.6448 129.861 53.0254 141.961 62.4864L158.021 46.4248L173.642 62.0464L157.581 77.998V78.108ZM88.061 198.02C105.565 198.02 122.353 191.066 134.729 178.687C147.106 166.309 154.061 149.519 154.061 132.014C154.061 114.508 147.106 97.7183 134.729 85.3394C122.353 72.9612 105.565 66.0068 88.061 66.0068C70.5568 66.0068 53.7689 72.9612 41.3924 85.3394C29.0159 97.7183 22.0605 114.508 22.0605 132.014C22.0605 149.519 29.0159 166.309 41.3924 178.687C53.7689 191.066 70.5568 198.02 88.061 198.02ZM55.0607 0H121.061V22.0023H55.0607V0Z" fill="#223D5B"/>
<path d="M75.5714 113.367H84.1401C86.4134 113.367 88.5965 114.268 90.2042 115.872C91.8119 117.476 92.7143 119.651 92.7143 121.92C92.7143 124.187 91.8119 126.363 90.2042 127.967C88.5965 129.571 86.4134 130.471 84.1401 130.471M84.1401 130.471H81.2857M84.1401 130.471C86.4134 130.471 88.5965 131.373 90.2042 132.977C91.8119 134.58 92.7143 136.756 92.7143 139.024C92.7143 141.292 91.8119 143.467 90.2042 145.071C88.5965 146.675 86.4134 147.576 84.1401 147.576H75.5714M47 130.471V130.529M72.7115 86V86.0573M72.7115 174.943V175M53.8594 156.128V156.185M53.8594 104.815V104.872M109.857 121.92V139.024C109.857 141.292 110.76 143.467 112.367 145.071C113.975 146.675 116.153 147.576 118.426 147.576C120.699 147.576 122.882 146.675 124.49 145.071C126.097 143.467 127 141.292 127 139.024V121.92C127 119.651 126.097 117.476 124.49 115.872C122.882 114.268 120.699 113.367 118.426 113.367C116.153 113.367 113.975 114.268 112.367 115.872C110.76 117.476 109.857 119.651 109.857 121.92Z" stroke="#223D5B" stroke-width="7" stroke-linecap="round" stroke-linejoin="round"/>
</svg>
